<?xml version="1.0" encoding="UTF-8" standalone="no"?>
<!DOCTYPE svg PUBLIC "-//W3C//DTD SVG 1.1//EN"
 "http://www.w3.org/Graphics/SVG/1.1/DTD/svg11.dtd">
<!-- Generated by graphviz version 2.26.3 (20100126.1600)
 -->
<!-- Title: controllers_diagram Pages: 1 -->
<svg width="1144pt" height="1045pt"
 viewBox="0.00 0.00 1144.00 1045.00" xmlns="http://www.w3.org/2000/svg" xmlns:xlink="http://www.w3.org/1999/xlink">
<g id="graph1" class="graph" transform="scale(1 1) rotate(0) translate(4 1041)">
<title>controllers_diagram</title>
<polygon fill="white" stroke="white" points="-4,5 -4,-1041 1141,-1041 1141,5 -4,5"/>
<!-- _diagram_info -->
<g id="node1" class="node"><title>_diagram_info</title>
<text text-anchor="start" x="893" y="-780.3" font-family="Times Roman,serif" font-size="13.00">Controllers diagram</text>
<text text-anchor="start" x="893" y="-763.3" font-family="Times Roman,serif" font-size="13.00">Date: Jun 26 2012 &#45; 21:22</text>
<text text-anchor="start" x="893" y="-746.3" font-family="Times Roman,serif" font-size="13.00">Migration version: 20120626115106</text>
<text text-anchor="start" x="893" y="-729.3" font-family="Times Roman,serif" font-size="13.00">Generated by RailRoady 1.0.7</text>
<text text-anchor="start" x="893" y="-712.3" font-family="Times Roman,serif" font-size="13.00">http://railroady.prestonlee.com</text>
</g>
<!-- RepositoryController -->
<g id="node2" class="node"><title>RepositoryController</title>
<polyline fill="none" stroke="black" points="39,-27.5 253,-27.5 "/>
<path fill="none" stroke="black" d="M253,-27.5C259,-27.5 265,-33.5 265,-39.5"/>
<polyline fill="none" stroke="black" points="265,-39.5 265,-171.5 "/>
<path fill="none" stroke="black" d="M265,-171.5C265,-177.5 259,-183.5 253,-183.5"/>
<polyline fill="none" stroke="black" points="253,-183.5 39,-183.5 "/>
<path fill="none" stroke="black" d="M39,-183.5C33,-183.5 27,-177.5 27,-171.5"/>
<polyline fill="none" stroke="black" points="27,-171.5 27,-39.5 "/>
<path fill="none" stroke="black" d="M27,-39.5C27,-33.5 33,-27.5 39,-27.5"/>
<text text-anchor="middle" x="146" y="-166.9" font-family="Times Roman,serif" font-size="14.00">RepositoryController</text>
<polyline fill="none" stroke="black" points="27,-157.5 265,-157.5 "/>
<text text-anchor="start" x="35" y="-140.9" font-family="Times Roman,serif" font-size="14.00">_callback_before_79</text>
<text text-anchor="start" x="35" y="-122.9" font-family="Times Roman,serif" font-size="14.00">_one_time_conditions_valid_78?</text>
<text text-anchor="start" x="35" y="-104.9" font-family="Times Roman,serif" font-size="14.00">_one_time_conditions_valid_80?</text>
<text text-anchor="start" x="35" y="-86.9" font-family="Times Roman,serif" font-size="14.00">index</text>
<polyline fill="none" stroke="black" points="27,-77.5 265,-77.5 "/>
<polyline fill="none" stroke="black" points="27,-53.5 265,-53.5 "/>
<text text-anchor="start" x="35" y="-36.9" font-family="Times Roman,serif" font-size="14.00">_layout</text>
</g>
<!-- PlanWorkpackagesController -->
<g id="node3" class="node"><title>PlanWorkpackagesController</title>
<polyline fill="none" stroke="black" points="715,-1.5 906,-1.5 "/>
<path fill="none" stroke="black" d="M906,-1.5C912,-1.5 918,-7.5 918,-13.5"/>
<polyline fill="none" stroke="black" points="918,-13.5 918,-199.5 "/>
<path fill="none" stroke="black" d="M918,-199.5C918,-205.5 912,-211.5 906,-211.5"/>
<polyline fill="none" stroke="black" points="906,-211.5 715,-211.5 "/>
<path fill="none" stroke="black" d="M715,-211.5C709,-211.5 703,-205.5 703,-199.5"/>
<polyline fill="none" stroke="black" points="703,-199.5 703,-13.5 "/>
<path fill="none" stroke="black" d="M703,-13.5C703,-7.5 709,-1.5 715,-1.5"/>
<text text-anchor="middle" x="810.5" y="-194.9" font-family="Times Roman,serif" font-size="14.00">PlanWorkpackagesController</text>
<polyline fill="none" stroke="black" points="703,-185.5 918,-185.5 "/>
<text text-anchor="start" x="711" y="-168.9" font-family="Times Roman,serif" font-size="14.00">create</text>
<text text-anchor="start" x="711" y="-150.9" font-family="Times Roman,serif" font-size="14.00">destroy</text>
<text text-anchor="start" x="711" y="-132.9" font-family="Times Roman,serif" font-size="14.00">edit</text>
<text text-anchor="start" x="711" y="-114.9" font-family="Times Roman,serif" font-size="14.00">index</text>
<text text-anchor="start" x="711" y="-96.9" font-family="Times Roman,serif" font-size="14.00">new</text>
<text text-anchor="start" x="711" y="-78.9" font-family="Times Roman,serif" font-size="14.00">show</text>
<text text-anchor="start" x="711" y="-60.9" font-family="Times Roman,serif" font-size="14.00">update</text>
<polyline fill="none" stroke="black" points="703,-51.5 918,-51.5 "/>
<polyline fill="none" stroke="black" points="703,-27.5 918,-27.5 "/>
<text text-anchor="start" x="711" y="-10.9" font-family="Times Roman,serif" font-size="14.00">_layout</text>
</g>
<!-- DeliverablesController -->
<g id="node4" class="node"><title>DeliverablesController</title>
<polyline fill="none" stroke="black" points="299,-261.5 522,-261.5 "/>
<path fill="none" stroke="black" d="M522,-261.5C528,-261.5 534,-267.5 534,-273.5"/>
<polyline fill="none" stroke="black" points="534,-273.5 534,-531.5 "/>
<path fill="none" stroke="black" d="M534,-531.5C534,-537.5 528,-543.5 522,-543.5"/>
<polyline fill="none" stroke="black" points="522,-543.5 299,-543.5 "/>
<path fill="none" stroke="black" d="M299,-543.5C293,-543.5 287,-537.5 287,-531.5"/>
<polyline fill="none" stroke="black" points="287,-531.5 287,-273.5 "/>
<path fill="none" stroke="black" d="M287,-273.5C287,-267.5 293,-261.5 299,-261.5"/>
<text text-anchor="middle" x="410.5" y="-526.9" font-family="Times Roman,serif" font-size="14.00">DeliverablesController</text>
<polyline fill="none" stroke="black" points="287,-517.5 534,-517.5 "/>
<text text-anchor="start" x="295" y="-500.9" font-family="Times Roman,serif" font-size="14.00">_callback_before_141</text>
<text text-anchor="start" x="295" y="-482.9" font-family="Times Roman,serif" font-size="14.00">_one_time_conditions_valid_140?</text>
<text text-anchor="start" x="295" y="-464.9" font-family="Times Roman,serif" font-size="14.00">_one_time_conditions_valid_142?</text>
<text text-anchor="start" x="295" y="-446.9" font-family="Times Roman,serif" font-size="14.00">approve</text>
<text text-anchor="start" x="295" y="-428.9" font-family="Times Roman,serif" font-size="14.00">create</text>
<text text-anchor="start" x="295" y="-410.9" font-family="Times Roman,serif" font-size="14.00">destroy</text>
<text text-anchor="start" x="295" y="-392.9" font-family="Times Roman,serif" font-size="14.00">edit</text>
<text text-anchor="start" x="295" y="-374.9" font-family="Times Roman,serif" font-size="14.00">index</text>
<text text-anchor="start" x="295" y="-356.9" font-family="Times Roman,serif" font-size="14.00">new</text>
<text text-anchor="start" x="295" y="-338.9" font-family="Times Roman,serif" font-size="14.00">show</text>
<text text-anchor="start" x="295" y="-320.9" font-family="Times Roman,serif" font-size="14.00">update</text>
<polyline fill="none" stroke="black" points="287,-311.5 534,-311.5 "/>
<polyline fill="none" stroke="black" points="287,-287.5 534,-287.5 "/>
<text text-anchor="start" x="295" y="-270.9" font-family="Times Roman,serif" font-size="14.00">_layout</text>
</g>
<!-- PlanProjectsController -->
<g id="node5" class="node"><title>PlanProjectsController</title>
<polyline fill="none" stroke="black" points="585,-261.5 808,-261.5 "/>
<path fill="none" stroke="black" d="M808,-261.5C814,-261.5 820,-267.5 820,-273.5"/>
<polyline fill="none" stroke="black" points="820,-273.5 820,-531.5 "/>
<path fill="none" stroke="black" d="M820,-531.5C820,-537.5 814,-543.5 808,-543.5"/>
<polyline fill="none" stroke="black" points="808,-543.5 585,-543.5 "/>
<path fill="none" stroke="black" d="M585,-543.5C579,-543.5 573,-537.5 573,-531.5"/>
<polyline fill="none" stroke="black" points="573,-531.5 573,-273.5 "/>
<path fill="none" stroke="black" d="M573,-273.5C573,-267.5 579,-261.5 585,-261.5"/>
<text text-anchor="middle" x="696.5" y="-526.9" font-family="Times Roman,serif" font-size="14.00">PlanProjectsController</text>
<polyline fill="none" stroke="black" points="573,-517.5 820,-517.5 "/>
<text text-anchor="start" x="581" y="-500.9" font-family="Times Roman,serif" font-size="14.00">_callback_before_183</text>
<text text-anchor="start" x="581" y="-482.9" font-family="Times Roman,serif" font-size="14.00">_one_time_conditions_valid_182?</text>
<text text-anchor="start" x="581" y="-464.9" font-family="Times Roman,serif" font-size="14.00">_one_time_conditions_valid_184?</text>
<text text-anchor="start" x="581" y="-446.9" font-family="Times Roman,serif" font-size="14.00">create</text>
<text text-anchor="start" x="581" y="-428.9" font-family="Times Roman,serif" font-size="14.00">destroy</text>
<text text-anchor="start" x="581" y="-410.9" font-family="Times Roman,serif" font-size="14.00">edit</text>
<text text-anchor="start" x="581" y="-392.9" font-family="Times Roman,serif" font-size="14.00">index</text>
<text text-anchor="start" x="581" y="-374.9" font-family="Times Roman,serif" font-size="14.00">new</text>
<text text-anchor="start" x="581" y="-356.9" font-family="Times Roman,serif" font-size="14.00">publish</text>
<text text-anchor="start" x="581" y="-338.9" font-family="Times Roman,serif" font-size="14.00">show</text>
<text text-anchor="start" x="581" y="-320.9" font-family="Times Roman,serif" font-size="14.00">update</text>
<polyline fill="none" stroke="black" points="573,-311.5 820,-311.5 "/>
<polyline fill="none" stroke="black" points="573,-287.5 820,-287.5 "/>
<text text-anchor="start" x="581" y="-270.9" font-family="Times Roman,serif" font-size="14.00">_layout</text>
</g>
<!-- PlanDeliverablesController -->
<g id="node6" class="node"><title>PlanDeliverablesController</title>
<polyline fill="none" stroke="black" points="325,-599.5 548,-599.5 "/>
<path fill="none" stroke="black" d="M548,-599.5C554,-599.5 560,-605.5 560,-611.5"/>
<polyline fill="none" stroke="black" points="560,-611.5 560,-815.5 "/>
<path fill="none" stroke="black" d="M560,-815.5C560,-821.5 554,-827.5 548,-827.5"/>
<polyline fill="none" stroke="black" points="548,-827.5 325,-827.5 "/>
<path fill="none" stroke="black" d="M325,-827.5C319,-827.5 313,-821.5 313,-815.5"/>
<polyline fill="none" stroke="black" points="313,-815.5 313,-611.5 "/>
<path fill="none" stroke="black" d="M313,-611.5C313,-605.5 319,-599.5 325,-599.5"/>
<text text-anchor="middle" x="436.5" y="-810.9" font-family="Times Roman,serif" font-size="14.00">PlanDeliverablesController</text>
<polyline fill="none" stroke="black" points="313,-801.5 560,-801.5 "/>
<text text-anchor="start" x="321" y="-784.9" font-family="Times Roman,serif" font-size="14.00">_one_time_conditions_valid_214?</text>
<text text-anchor="start" x="321" y="-766.9" font-family="Times Roman,serif" font-size="14.00">create</text>
<text text-anchor="start" x="321" y="-748.9" font-family="Times Roman,serif" font-size="14.00">destroy</text>
<text text-anchor="start" x="321" y="-730.9" font-family="Times Roman,serif" font-size="14.00">edit</text>
<text text-anchor="start" x="321" y="-712.9" font-family="Times Roman,serif" font-size="14.00">index</text>
<text text-anchor="start" x="321" y="-694.9" font-family="Times Roman,serif" font-size="14.00">new</text>
<text text-anchor="start" x="321" y="-676.9" font-family="Times Roman,serif" font-size="14.00">show</text>
<text text-anchor="start" x="321" y="-658.9" font-family="Times Roman,serif" font-size="14.00">update</text>
<polyline fill="none" stroke="black" points="313,-649.5 560,-649.5 "/>
<polyline fill="none" stroke="black" points="313,-625.5 560,-625.5 "/>
<text text-anchor="start" x="321" y="-608.9" font-family="Times Roman,serif" font-size="14.00">_layout</text>
</g>
<!-- PlanResourcesController -->
<g id="node7" class="node"><title>PlanResourcesController</title>
<polyline fill="none" stroke="black" points="39,-807.5 262,-807.5 "/>
<path fill="none" stroke="black" d="M262,-807.5C268,-807.5 274,-813.5 274,-819.5"/>
<polyline fill="none" stroke="black" points="274,-819.5 274,-1023.5 "/>
<path fill="none" stroke="black" d="M274,-1023.5C274,-1029.5 268,-1035.5 262,-1035.5"/>
<polyline fill="none" stroke="black" points="262,-1035.5 39,-1035.5 "/>
<path fill="none" stroke="black" d="M39,-1035.5C33,-1035.5 27,-1029.5 27,-1023.5"/>
<polyline fill="none" stroke="black" points="27,-1023.5 27,-819.5 "/>
<path fill="none" stroke="black" d="M27,-819.5C27,-813.5 33,-807.5 39,-807.5"/>
<text text-anchor="middle" x="150.5" y="-1018.9" font-family="Times Roman,serif" font-size="14.00">PlanResourcesController</text>
<polyline fill="none" stroke="black" points="27,-1009.5 274,-1009.5 "/>
<text text-anchor="start" x="35" y="-992.9" font-family="Times Roman,serif" font-size="14.00">_one_time_conditions_valid_244?</text>
<text text-anchor="start" x="35" y="-974.9" font-family="Times Roman,serif" font-size="14.00">create</text>
<text text-anchor="start" x="35" y="-956.9" font-family="Times Roman,serif" font-size="14.00">destroy</text>
<text text-anchor="start" x="35" y="-938.9" font-family="Times Roman,serif" font-size="14.00">edit</text>
<text text-anchor="start" x="35" y="-920.9" font-family="Times Roman,serif" font-size="14.00">index</text>
<text text-anchor="start" x="35" y="-902.9" font-family="Times Roman,serif" font-size="14.00">new</text>
<text text-anchor="start" x="35" y="-884.9" font-family="Times Roman,serif" font-size="14.00">show</text>
<text text-anchor="start" x="35" y="-866.9" font-family="Times Roman,serif" font-size="14.00">update</text>
<polyline fill="none" stroke="black" points="27,-857.5 274,-857.5 "/>
<polyline fill="none" stroke="black" points="27,-833.5 274,-833.5 "/>
<text text-anchor="start" x="35" y="-816.9" font-family="Times Roman,serif" font-size="14.00">_layout</text>
</g>
<!-- ProjectsController -->
<g id="node8" class="node"><title>ProjectsController</title>
<polyline fill="none" stroke="black" points="611,-599.5 834,-599.5 "/>
<path fill="none" stroke="black" d="M834,-599.5C840,-599.5 846,-605.5 846,-611.5"/>
<polyline fill="none" stroke="black" points="846,-611.5 846,-851.5 "/>
<path fill="none" stroke="black" d="M846,-851.5C846,-857.5 840,-863.5 834,-863.5"/>
<polyline fill="none" stroke="black" points="834,-863.5 611,-863.5 "/>
<path fill="none" stroke="black" d="M611,-863.5C605,-863.5 599,-857.5 599,-851.5"/>
<polyline fill="none" stroke="black" points="599,-851.5 599,-611.5 "/>
<path fill="none" stroke="black" d="M599,-611.5C599,-605.5 605,-599.5 611,-599.5"/>
<text text-anchor="middle" x="722.5" y="-846.9" font-family="Times Roman,serif" font-size="14.00">ProjectsController</text>
<polyline fill="none" stroke="black" points="599,-837.5 846,-837.5 "/>
<text text-anchor="start" x="607" y="-820.9" font-family="Times Roman,serif" font-size="14.00">_callback_before_259</text>
<text text-anchor="start" x="607" y="-802.9" font-family="Times Roman,serif" font-size="14.00">_one_time_conditions_valid_258?</text>
<text text-anchor="start" x="607" y="-784.9" font-family="Times Roman,serif" font-size="14.00">_one_time_conditions_valid_260?</text>
<text text-anchor="start" x="607" y="-766.9" font-family="Times Roman,serif" font-size="14.00">create</text>
<text text-anchor="start" x="607" y="-748.9" font-family="Times Roman,serif" font-size="14.00">destroy</text>
<text text-anchor="start" x="607" y="-730.9" font-family="Times Roman,serif" font-size="14.00">edit</text>
<text text-anchor="start" x="607" y="-712.9" font-family="Times Roman,serif" font-size="14.00">index</text>
<text text-anchor="start" x="607" y="-694.9" font-family="Times Roman,serif" font-size="14.00">new</text>
<text text-anchor="start" x="607" y="-676.9" font-family="Times Roman,serif" font-size="14.00">show</text>
<text text-anchor="start" x="607" y="-658.9" font-family="Times Roman,serif" font-size="14.00">update</text>
<polyline fill="none" stroke="black" points="599,-649.5 846,-649.5 "/>
<polyline fill="none" stroke="black" points="599,-625.5 846,-625.5 "/>
<text text-anchor="start" x="607" y="-608.9" font-family="Times Roman,serif" font-size="14.00">_layout</text>
</g>
<!-- PlanTasksController -->
<g id="node9" class="node"><title>PlanTasksController</title>
<polyline fill="none" stroke="black" points="13,-521.5 236,-521.5 "/>
<path fill="none" stroke="black" d="M236,-521.5C242,-521.5 248,-527.5 248,-533.5"/>
<polyline fill="none" stroke="black" points="248,-533.5 248,-737.5 "/>
<path fill="none" stroke="black" d="M248,-737.5C248,-743.5 242,-749.5 236,-749.5"/>
<polyline fill="none" stroke="black" points="236,-749.5 13,-749.5 "/>
<path fill="none" stroke="black" d="M13,-749.5C7,-749.5 1,-743.5 1,-737.5"/>
<polyline fill="none" stroke="black" points="1,-737.5 1,-533.5 "/>
<path fill="none" stroke="black" d="M1,-533.5C1,-527.5 7,-521.5 13,-521.5"/>
<text text-anchor="middle" x="124.5" y="-732.9" font-family="Times Roman,serif" font-size="14.00">PlanTasksController</text>
<polyline fill="none" stroke="black" points="1,-723.5 248,-723.5 "/>
<text text-anchor="start" x="9" y="-706.9" font-family="Times Roman,serif" font-size="14.00">_one_time_conditions_valid_262?</text>
<text text-anchor="start" x="9" y="-688.9" font-family="Times Roman,serif" font-size="14.00">create</text>
<text text-anchor="start" x="9" y="-670.9" font-family="Times Roman,serif" font-size="14.00">destroy</text>
<text text-anchor="start" x="9" y="-652.9" font-family="Times Roman,serif" font-size="14.00">edit</text>
<text text-anchor="start" x="9" y="-634.9" font-family="Times Roman,serif" font-size="14.00">index</text>
<text text-anchor="start" x="9" y="-616.9" font-family="Times Roman,serif" font-size="14.00">new</text>
<text text-anchor="start" x="9" y="-598.9" font-family="Times Roman,serif" font-size="14.00">show</text>
<text text-anchor="start" x="9" y="-580.9" font-family="Times Roman,serif" font-size="14.00">update</text>
<polyline fill="none" stroke="black" points="1,-571.5 248,-571.5 "/>
<polyline fill="none" stroke="black" points="1,-547.5 248,-547.5 "/>
<text text-anchor="start" x="9" y="-530.9" font-family="Times Roman,serif" font-size="14.00">_layout</text>
</g>
<!-- PlanOrganizationsController -->
<g id="node10" class="node"><title>PlanOrganizationsController</title>
<polyline fill="none" stroke="black" points="871,-261.5 1059,-261.5 "/>
<path fill="none" stroke="black" d="M1059,-261.5C1065,-261.5 1071,-267.5 1071,-273.5"/>
<polyline fill="none" stroke="black" points="1071,-273.5 1071,-459.5 "/>
<path fill="none" stroke="black" d="M1071,-459.5C1071,-465.5 1065,-471.5 1059,-471.5"/>
<polyline fill="none" stroke="black" points="1059,-471.5 871,-471.5 "/>
<path fill="none" stroke="black" d="M871,-471.5C865,-471.5 859,-465.5 859,-459.5"/>
<polyline fill="none" stroke="black" points="859,-459.5 859,-273.5 "/>
<path fill="none" stroke="black" d="M859,-273.5C859,-267.5 865,-261.5 871,-261.5"/>
<text text-anchor="middle" x="965" y="-454.9" font-family="Times Roman,serif" font-size="14.00">PlanOrganizationsController</text>
<polyline fill="none" stroke="black" points="859,-445.5 1071,-445.5 "/>
<text text-anchor="start" x="867" y="-428.9" font-family="Times Roman,serif" font-size="14.00">create</text>
<text text-anchor="start" x="867" y="-410.9" font-family="Times Roman,serif" font-size="14.00">destroy</text>
<text text-anchor="start" x="867" y="-392.9" font-family="Times Roman,serif" font-size="14.00">edit</text>
<text text-anchor="start" x="867" y="-374.9" font-family="Times Roman,serif" font-size="14.00">index</text>
<text text-anchor="start" x="867" y="-356.9" font-family="Times Roman,serif" font-size="14.00">new</text>
<text text-anchor="start" x="867" y="-338.9" font-family="Times Roman,serif" font-size="14.00">show</text>
<text text-anchor="start" x="867" y="-320.9" font-family="Times Roman,serif" font-size="14.00">update</text>
<polyline fill="none" stroke="black" points="859,-311.5 1071,-311.5 "/>
<polyline fill="none" stroke="black" points="859,-287.5 1071,-287.5 "/>
<text text-anchor="start" x="867" y="-270.9" font-family="Times Roman,serif" font-size="14.00">_layout</text>
</g>
<!-- ApplicationController -->
<g id="node11" class="node"><title>ApplicationController</title>
<polyline fill="none" stroke="black" points="429,-27.5 643,-27.5 "/>
<path fill="none" stroke="black" d="M643,-27.5C649,-27.5 655,-33.5 655,-39.5"/>
<polyline fill="none" stroke="black" points="655,-39.5 655,-207.5 "/>
<path fill="none" stroke="black" d="M655,-207.5C655,-213.5 649,-219.5 643,-219.5"/>
<polyline fill="none" stroke="black" points="643,-219.5 429,-219.5 "/>
<path fill="none" stroke="black" d="M429,-219.5C423,-219.5 417,-213.5 417,-207.5"/>
<polyline fill="none" stroke="black" points="417,-207.5 417,-39.5 "/>
<path fill="none" stroke="black" d="M417,-39.5C417,-33.5 423,-27.5 429,-27.5"/>
<text text-anchor="middle" x="536" y="-202.9" font-family="Times Roman,serif" font-size="14.00">ApplicationController</text>
<polyline fill="none" stroke="black" points="417,-193.5 655,-193.5 "/>
<text text-anchor="start" x="425" y="-176.9" font-family="Times Roman,serif" font-size="14.00">_one_time_conditions_valid_76?</text>
<text text-anchor="start" x="425" y="-158.9" font-family="Times Roman,serif" font-size="14.00">assign_role</text>
<text text-anchor="start" x="425" y="-140.9" font-family="Times Roman,serif" font-size="14.00">clear_all_session</text>
<text text-anchor="start" x="425" y="-122.9" font-family="Times Roman,serif" font-size="14.00">create_repo_project</text>
<text text-anchor="start" x="425" y="-104.9" font-family="Times Roman,serif" font-size="14.00">create_user_for_repository</text>
<text text-anchor="start" x="425" y="-86.9" font-family="Times Roman,serif" font-size="14.00">current_ability</text>
<polyline fill="none" stroke="black" points="417,-77.5 655,-77.5 "/>
<polyline fill="none" stroke="black" points="417,-53.5 655,-53.5 "/>
<text text-anchor="start" x="425" y="-36.9" font-family="Times Roman,serif" font-size="14.00">_layout</text>
</g>
<!-- HomeController -->
<g id="node12" class="node"><title>HomeController</title>
<polyline fill="none" stroke="black" points="897,-521.5 1120,-521.5 "/>
<path fill="none" stroke="black" d="M1120,-521.5C1126,-521.5 1132,-527.5 1132,-533.5"/>
<polyline fill="none" stroke="black" points="1132,-533.5 1132,-629.5 "/>
<path fill="none" stroke="black" d="M1132,-629.5C1132,-635.5 1126,-641.5 1120,-641.5"/>
<polyline fill="none" stroke="black" points="1120,-641.5 897,-641.5 "/>
<path fill="none" stroke="black" d="M897,-641.5C891,-641.5 885,-635.5 885,-629.5"/>
<polyline fill="none" stroke="black" points="885,-629.5 885,-533.5 "/>
<path fill="none" stroke="black" d="M885,-533.5C885,-527.5 891,-521.5 897,-521.5"/>
<text text-anchor="middle" x="1008.5" y="-624.9" font-family="Times Roman,serif" font-size="14.00">HomeController</text>
<polyline fill="none" stroke="black" points="885,-615.5 1132,-615.5 "/>
<text text-anchor="start" x="893" y="-598.9" font-family="Times Roman,serif" font-size="14.00">_one_time_conditions_valid_288?</text>
<text text-anchor="start" x="893" y="-580.9" font-family="Times Roman,serif" font-size="14.00">index</text>
<polyline fill="none" stroke="black" points="885,-571.5 1132,-571.5 "/>
<polyline fill="none" stroke="black" points="885,-547.5 1132,-547.5 "/>
<text text-anchor="start" x="893" y="-530.9" font-family="Times Roman,serif" font-size="14.00">_layout</text>
</g>
<!-- PlanMilestonesController -->
<g id="node13" class="node"><title>PlanMilestonesController</title>
<polyline fill="none" stroke="black" points="13,-235.5 236,-235.5 "/>
<path fill="none" stroke="black" d="M236,-235.5C242,-235.5 248,-241.5 248,-247.5"/>
<polyline fill="none" stroke="black" points="248,-247.5 248,-451.5 "/>
<path fill="none" stroke="black" d="M248,-451.5C248,-457.5 242,-463.5 236,-463.5"/>
<polyline fill="none" stroke="black" points="236,-463.5 13,-463.5 "/>
<path fill="none" stroke="black" d="M13,-463.5C7,-463.5 1,-457.5 1,-451.5"/>
<polyline fill="none" stroke="black" points="1,-451.5 1,-247.5 "/>
<path fill="none" stroke="black" d="M1,-247.5C1,-241.5 7,-235.5 13,-235.5"/>
<text text-anchor="middle" x="124.5" y="-446.9" font-family="Times Roman,serif" font-size="14.00">PlanMilestonesController</text>
<polyline fill="none" stroke="black" points="1,-437.5 248,-437.5 "/>
<text text-anchor="start" x="9" y="-420.9" font-family="Times Roman,serif" font-size="14.00">_one_time_conditions_valid_292?</text>
<text text-anchor="start" x="9" y="-402.9" font-family="Times Roman,serif" font-size="14.00">create</text>
<text text-anchor="start" x="9" y="-384.9" font-family="Times Roman,serif" font-size="14.00">destroy</text>
<text text-anchor="start" x="9" y="-366.9" font-family="Times Roman,serif" font-size="14.00">edit</text>
<text text-anchor="start" x="9" y="-348.9" font-family="Times Roman,serif" font-size="14.00">index</text>
<text text-anchor="start" x="9" y="-330.9" font-family="Times Roman,serif" font-size="14.00">new</text>
<text text-anchor="start" x="9" y="-312.9" font-family="Times Roman,serif" font-size="14.00">show</text>
<text text-anchor="start" x="9" y="-294.9" font-family="Times Roman,serif" font-size="14.00">update</text>
<polyline fill="none" stroke="black" points="1,-285.5 248,-285.5 "/>
<polyline fill="none" stroke="black" points="1,-261.5 248,-261.5 "/>
<text text-anchor="start" x="9" y="-244.9" font-family="Times Roman,serif" font-size="14.00">_layout</text>
</g>
</g>
</svg>
