<?xml version="1.0" encoding="UTF-8" standalone="no"?>
<!DOCTYPE svg PUBLIC "-//W3C//DTD SVG 1.1//EN"
 "http://www.w3.org/Graphics/SVG/1.1/DTD/svg11.dtd">
<!-- Generated by graphviz version 2.26.3 (20100126.1600)
 -->
<!-- Title: controllers_diagram Pages: 1 -->
<svg width="1118pt" height="1071pt"
 viewBox="0.00 0.00 1118.00 1071.00" xmlns="http://www.w3.org/2000/svg" xmlns:xlink="http://www.w3.org/1999/xlink">
<g id="graph1" class="graph" transform="scale(1 1) rotate(0) translate(4 1067)">
<title>controllers_diagram</title>
<polygon fill="white" stroke="white" points="-4,5 -4,-1067 1115,-1067 1115,5 -4,5"/>
<!-- _diagram_info -->
<g id="node1" class="node"><title>_diagram_info</title>
<text text-anchor="start" x="867" y="-520.3" font-family="Times Roman,serif" font-size="13.00">Controllers diagram</text>
<text text-anchor="start" x="867" y="-503.3" font-family="Times Roman,serif" font-size="13.00">Date: Jun 19 2012 &#45; 16:00</text>
<text text-anchor="start" x="867" y="-486.3" font-family="Times Roman,serif" font-size="13.00">Migration version: 20120508110646</text>
<text text-anchor="start" x="867" y="-469.3" font-family="Times Roman,serif" font-size="13.00">Generated by RailRoady 1.0.7</text>
<text text-anchor="start" x="867" y="-452.3" font-family="Times Roman,serif" font-size="13.00">http://railroady.prestonlee.com</text>
</g>
<!-- RepositoryController -->
<g id="node2" class="node"><title>RepositoryController</title>
<polyline fill="none" stroke="black" points="65,-53.5 279,-53.5 "/>
<path fill="none" stroke="black" d="M279,-53.5C285,-53.5 291,-59.5 291,-65.5"/>
<polyline fill="none" stroke="black" points="291,-65.5 291,-197.5 "/>
<path fill="none" stroke="black" d="M291,-197.5C291,-203.5 285,-209.5 279,-209.5"/>
<polyline fill="none" stroke="black" points="279,-209.5 65,-209.5 "/>
<path fill="none" stroke="black" d="M65,-209.5C59,-209.5 53,-203.5 53,-197.5"/>
<polyline fill="none" stroke="black" points="53,-197.5 53,-65.5 "/>
<path fill="none" stroke="black" d="M53,-65.5C53,-59.5 59,-53.5 65,-53.5"/>
<text text-anchor="middle" x="172" y="-192.9" font-family="Times Roman,serif" font-size="14.00">RepositoryController</text>
<polyline fill="none" stroke="black" points="53,-183.5 291,-183.5 "/>
<text text-anchor="start" x="61" y="-166.9" font-family="Times Roman,serif" font-size="14.00">_callback_before_79</text>
<text text-anchor="start" x="61" y="-148.9" font-family="Times Roman,serif" font-size="14.00">_one_time_conditions_valid_78?</text>
<text text-anchor="start" x="61" y="-130.9" font-family="Times Roman,serif" font-size="14.00">_one_time_conditions_valid_80?</text>
<text text-anchor="start" x="61" y="-112.9" font-family="Times Roman,serif" font-size="14.00">index</text>
<polyline fill="none" stroke="black" points="53,-103.5 291,-103.5 "/>
<polyline fill="none" stroke="black" points="53,-79.5 291,-79.5 "/>
<text text-anchor="start" x="61" y="-62.9" font-family="Times Roman,serif" font-size="14.00">_layout</text>
</g>
<!-- PlanWorkpackagesController -->
<g id="node3" class="node"><title>PlanWorkpackagesController</title>
<polyline fill="none" stroke="black" points="715,-1.5 906,-1.5 "/>
<path fill="none" stroke="black" d="M906,-1.5C912,-1.5 918,-7.5 918,-13.5"/>
<polyline fill="none" stroke="black" points="918,-13.5 918,-199.5 "/>
<path fill="none" stroke="black" d="M918,-199.5C918,-205.5 912,-211.5 906,-211.5"/>
<polyline fill="none" stroke="black" points="906,-211.5 715,-211.5 "/>
<path fill="none" stroke="black" d="M715,-211.5C709,-211.5 703,-205.5 703,-199.5"/>
<polyline fill="none" stroke="black" points="703,-199.5 703,-13.5 "/>
<path fill="none" stroke="black" d="M703,-13.5C703,-7.5 709,-1.5 715,-1.5"/>
<text text-anchor="middle" x="810.5" y="-194.9" font-family="Times Roman,serif" font-size="14.00">PlanWorkpackagesController</text>
<polyline fill="none" stroke="black" points="703,-185.5 918,-185.5 "/>
<text text-anchor="start" x="711" y="-168.9" font-family="Times Roman,serif" font-size="14.00">create</text>
<text text-anchor="start" x="711" y="-150.9" font-family="Times Roman,serif" font-size="14.00">destroy</text>
<text text-anchor="start" x="711" y="-132.9" font-family="Times Roman,serif" font-size="14.00">edit</text>
<text text-anchor="start" x="711" y="-114.9" font-family="Times Roman,serif" font-size="14.00">index</text>
<text text-anchor="start" x="711" y="-96.9" font-family="Times Roman,serif" font-size="14.00">new</text>
<text text-anchor="start" x="711" y="-78.9" font-family="Times Roman,serif" font-size="14.00">show</text>
<text text-anchor="start" x="711" y="-60.9" font-family="Times Roman,serif" font-size="14.00">update</text>
<polyline fill="none" stroke="black" points="703,-51.5 918,-51.5 "/>
<polyline fill="none" stroke="black" points="703,-27.5 918,-27.5 "/>
<text text-anchor="start" x="711" y="-10.9" font-family="Times Roman,serif" font-size="14.00">_layout</text>
</g>
<!-- DeliverablesController -->
<g id="node4" class="node"><title>DeliverablesController</title>
<polyline fill="none" stroke="black" points="585,-261.5 808,-261.5 "/>
<path fill="none" stroke="black" d="M808,-261.5C814,-261.5 820,-267.5 820,-273.5"/>
<polyline fill="none" stroke="black" points="820,-273.5 820,-513.5 "/>
<path fill="none" stroke="black" d="M820,-513.5C820,-519.5 814,-525.5 808,-525.5"/>
<polyline fill="none" stroke="black" points="808,-525.5 585,-525.5 "/>
<path fill="none" stroke="black" d="M585,-525.5C579,-525.5 573,-519.5 573,-513.5"/>
<polyline fill="none" stroke="black" points="573,-513.5 573,-273.5 "/>
<path fill="none" stroke="black" d="M573,-273.5C573,-267.5 579,-261.5 585,-261.5"/>
<text text-anchor="middle" x="696.5" y="-508.9" font-family="Times Roman,serif" font-size="14.00">DeliverablesController</text>
<polyline fill="none" stroke="black" points="573,-499.5 820,-499.5 "/>
<text text-anchor="start" x="581" y="-482.9" font-family="Times Roman,serif" font-size="14.00">_callback_before_125</text>
<text text-anchor="start" x="581" y="-464.9" font-family="Times Roman,serif" font-size="14.00">_one_time_conditions_valid_124?</text>
<text text-anchor="start" x="581" y="-446.9" font-family="Times Roman,serif" font-size="14.00">_one_time_conditions_valid_126?</text>
<text text-anchor="start" x="581" y="-428.9" font-family="Times Roman,serif" font-size="14.00">create</text>
<text text-anchor="start" x="581" y="-410.9" font-family="Times Roman,serif" font-size="14.00">destroy</text>
<text text-anchor="start" x="581" y="-392.9" font-family="Times Roman,serif" font-size="14.00">edit</text>
<text text-anchor="start" x="581" y="-374.9" font-family="Times Roman,serif" font-size="14.00">index</text>
<text text-anchor="start" x="581" y="-356.9" font-family="Times Roman,serif" font-size="14.00">new</text>
<text text-anchor="start" x="581" y="-338.9" font-family="Times Roman,serif" font-size="14.00">show</text>
<text text-anchor="start" x="581" y="-320.9" font-family="Times Roman,serif" font-size="14.00">update</text>
<polyline fill="none" stroke="black" points="573,-311.5 820,-311.5 "/>
<polyline fill="none" stroke="black" points="573,-287.5 820,-287.5 "/>
<text text-anchor="start" x="581" y="-270.9" font-family="Times Roman,serif" font-size="14.00">_layout</text>
</g>
<!-- PlanProjectsController -->
<g id="node5" class="node"><title>PlanProjectsController</title>
<polyline fill="none" stroke="black" points="299,-261.5 522,-261.5 "/>
<path fill="none" stroke="black" d="M522,-261.5C528,-261.5 534,-267.5 534,-273.5"/>
<polyline fill="none" stroke="black" points="534,-273.5 534,-531.5 "/>
<path fill="none" stroke="black" d="M534,-531.5C534,-537.5 528,-543.5 522,-543.5"/>
<polyline fill="none" stroke="black" points="522,-543.5 299,-543.5 "/>
<path fill="none" stroke="black" d="M299,-543.5C293,-543.5 287,-537.5 287,-531.5"/>
<polyline fill="none" stroke="black" points="287,-531.5 287,-273.5 "/>
<path fill="none" stroke="black" d="M287,-273.5C287,-267.5 293,-261.5 299,-261.5"/>
<text text-anchor="middle" x="410.5" y="-526.9" font-family="Times Roman,serif" font-size="14.00">PlanProjectsController</text>
<polyline fill="none" stroke="black" points="287,-517.5 534,-517.5 "/>
<text text-anchor="start" x="295" y="-500.9" font-family="Times Roman,serif" font-size="14.00">_callback_before_157</text>
<text text-anchor="start" x="295" y="-482.9" font-family="Times Roman,serif" font-size="14.00">_one_time_conditions_valid_156?</text>
<text text-anchor="start" x="295" y="-464.9" font-family="Times Roman,serif" font-size="14.00">_one_time_conditions_valid_158?</text>
<text text-anchor="start" x="295" y="-446.9" font-family="Times Roman,serif" font-size="14.00">create</text>
<text text-anchor="start" x="295" y="-428.9" font-family="Times Roman,serif" font-size="14.00">destroy</text>
<text text-anchor="start" x="295" y="-410.9" font-family="Times Roman,serif" font-size="14.00">edit</text>
<text text-anchor="start" x="295" y="-392.9" font-family="Times Roman,serif" font-size="14.00">index</text>
<text text-anchor="start" x="295" y="-374.9" font-family="Times Roman,serif" font-size="14.00">new</text>
<text text-anchor="start" x="295" y="-356.9" font-family="Times Roman,serif" font-size="14.00">publish</text>
<text text-anchor="start" x="295" y="-338.9" font-family="Times Roman,serif" font-size="14.00">show</text>
<text text-anchor="start" x="295" y="-320.9" font-family="Times Roman,serif" font-size="14.00">update</text>
<polyline fill="none" stroke="black" points="287,-311.5 534,-311.5 "/>
<polyline fill="none" stroke="black" points="287,-287.5 534,-287.5 "/>
<text text-anchor="start" x="295" y="-270.9" font-family="Times Roman,serif" font-size="14.00">_layout</text>
</g>
<!-- PlanDeliverablesController -->
<g id="node6" class="node"><title>PlanDeliverablesController</title>
<polyline fill="none" stroke="black" points="299,-599.5 522,-599.5 "/>
<path fill="none" stroke="black" d="M522,-599.5C528,-599.5 534,-605.5 534,-611.5"/>
<polyline fill="none" stroke="black" points="534,-611.5 534,-815.5 "/>
<path fill="none" stroke="black" d="M534,-815.5C534,-821.5 528,-827.5 522,-827.5"/>
<polyline fill="none" stroke="black" points="522,-827.5 299,-827.5 "/>
<path fill="none" stroke="black" d="M299,-827.5C293,-827.5 287,-821.5 287,-815.5"/>
<polyline fill="none" stroke="black" points="287,-815.5 287,-611.5 "/>
<path fill="none" stroke="black" d="M287,-611.5C287,-605.5 293,-599.5 299,-599.5"/>
<text text-anchor="middle" x="410.5" y="-810.9" font-family="Times Roman,serif" font-size="14.00">PlanDeliverablesController</text>
<polyline fill="none" stroke="black" points="287,-801.5 534,-801.5 "/>
<text text-anchor="start" x="295" y="-784.9" font-family="Times Roman,serif" font-size="14.00">_one_time_conditions_valid_188?</text>
<text text-anchor="start" x="295" y="-766.9" font-family="Times Roman,serif" font-size="14.00">create</text>
<text text-anchor="start" x="295" y="-748.9" font-family="Times Roman,serif" font-size="14.00">destroy</text>
<text text-anchor="start" x="295" y="-730.9" font-family="Times Roman,serif" font-size="14.00">edit</text>
<text text-anchor="start" x="295" y="-712.9" font-family="Times Roman,serif" font-size="14.00">index</text>
<text text-anchor="start" x="295" y="-694.9" font-family="Times Roman,serif" font-size="14.00">new</text>
<text text-anchor="start" x="295" y="-676.9" font-family="Times Roman,serif" font-size="14.00">show</text>
<text text-anchor="start" x="295" y="-658.9" font-family="Times Roman,serif" font-size="14.00">update</text>
<polyline fill="none" stroke="black" points="287,-649.5 534,-649.5 "/>
<polyline fill="none" stroke="black" points="287,-625.5 534,-625.5 "/>
<text text-anchor="start" x="295" y="-608.9" font-family="Times Roman,serif" font-size="14.00">_layout</text>
</g>
<!-- PlanResourcesController -->
<g id="node7" class="node"><title>PlanResourcesController</title>
<polyline fill="none" stroke="black" points="13,-833.5 236,-833.5 "/>
<path fill="none" stroke="black" d="M236,-833.5C242,-833.5 248,-839.5 248,-845.5"/>
<polyline fill="none" stroke="black" points="248,-845.5 248,-1049.5 "/>
<path fill="none" stroke="black" d="M248,-1049.5C248,-1055.5 242,-1061.5 236,-1061.5"/>
<polyline fill="none" stroke="black" points="236,-1061.5 13,-1061.5 "/>
<path fill="none" stroke="black" d="M13,-1061.5C7,-1061.5 1,-1055.5 1,-1049.5"/>
<polyline fill="none" stroke="black" points="1,-1049.5 1,-845.5 "/>
<path fill="none" stroke="black" d="M1,-845.5C1,-839.5 7,-833.5 13,-833.5"/>
<text text-anchor="middle" x="124.5" y="-1044.9" font-family="Times Roman,serif" font-size="14.00">PlanResourcesController</text>
<polyline fill="none" stroke="black" points="1,-1035.5 248,-1035.5 "/>
<text text-anchor="start" x="9" y="-1018.9" font-family="Times Roman,serif" font-size="14.00">_one_time_conditions_valid_216?</text>
<text text-anchor="start" x="9" y="-1000.9" font-family="Times Roman,serif" font-size="14.00">create</text>
<text text-anchor="start" x="9" y="-982.9" font-family="Times Roman,serif" font-size="14.00">destroy</text>
<text text-anchor="start" x="9" y="-964.9" font-family="Times Roman,serif" font-size="14.00">edit</text>
<text text-anchor="start" x="9" y="-946.9" font-family="Times Roman,serif" font-size="14.00">index</text>
<text text-anchor="start" x="9" y="-928.9" font-family="Times Roman,serif" font-size="14.00">new</text>
<text text-anchor="start" x="9" y="-910.9" font-family="Times Roman,serif" font-size="14.00">show</text>
<text text-anchor="start" x="9" y="-892.9" font-family="Times Roman,serif" font-size="14.00">update</text>
<polyline fill="none" stroke="black" points="1,-883.5 248,-883.5 "/>
<polyline fill="none" stroke="black" points="1,-859.5 248,-859.5 "/>
<text text-anchor="start" x="9" y="-842.9" font-family="Times Roman,serif" font-size="14.00">_layout</text>
</g>
<!-- ProjectsController -->
<g id="node8" class="node"><title>ProjectsController</title>
<polyline fill="none" stroke="black" points="585,-573.5 808,-573.5 "/>
<path fill="none" stroke="black" d="M808,-573.5C814,-573.5 820,-579.5 820,-585.5"/>
<polyline fill="none" stroke="black" points="820,-585.5 820,-825.5 "/>
<path fill="none" stroke="black" d="M820,-825.5C820,-831.5 814,-837.5 808,-837.5"/>
<polyline fill="none" stroke="black" points="808,-837.5 585,-837.5 "/>
<path fill="none" stroke="black" d="M585,-837.5C579,-837.5 573,-831.5 573,-825.5"/>
<polyline fill="none" stroke="black" points="573,-825.5 573,-585.5 "/>
<path fill="none" stroke="black" d="M573,-585.5C573,-579.5 579,-573.5 585,-573.5"/>
<text text-anchor="middle" x="696.5" y="-820.9" font-family="Times Roman,serif" font-size="14.00">ProjectsController</text>
<polyline fill="none" stroke="black" points="573,-811.5 820,-811.5 "/>
<text text-anchor="start" x="581" y="-794.9" font-family="Times Roman,serif" font-size="14.00">_callback_before_231</text>
<text text-anchor="start" x="581" y="-776.9" font-family="Times Roman,serif" font-size="14.00">_one_time_conditions_valid_230?</text>
<text text-anchor="start" x="581" y="-758.9" font-family="Times Roman,serif" font-size="14.00">_one_time_conditions_valid_232?</text>
<text text-anchor="start" x="581" y="-740.9" font-family="Times Roman,serif" font-size="14.00">create</text>
<text text-anchor="start" x="581" y="-722.9" font-family="Times Roman,serif" font-size="14.00">destroy</text>
<text text-anchor="start" x="581" y="-704.9" font-family="Times Roman,serif" font-size="14.00">edit</text>
<text text-anchor="start" x="581" y="-686.9" font-family="Times Roman,serif" font-size="14.00">index</text>
<text text-anchor="start" x="581" y="-668.9" font-family="Times Roman,serif" font-size="14.00">new</text>
<text text-anchor="start" x="581" y="-650.9" font-family="Times Roman,serif" font-size="14.00">show</text>
<text text-anchor="start" x="581" y="-632.9" font-family="Times Roman,serif" font-size="14.00">update</text>
<polyline fill="none" stroke="black" points="573,-623.5 820,-623.5 "/>
<polyline fill="none" stroke="black" points="573,-599.5 820,-599.5 "/>
<text text-anchor="start" x="581" y="-582.9" font-family="Times Roman,serif" font-size="14.00">_layout</text>
</g>
<!-- PlanTasksController -->
<g id="node9" class="node"><title>PlanTasksController</title>
<polyline fill="none" stroke="black" points="13,-547.5 236,-547.5 "/>
<path fill="none" stroke="black" d="M236,-547.5C242,-547.5 248,-553.5 248,-559.5"/>
<polyline fill="none" stroke="black" points="248,-559.5 248,-763.5 "/>
<path fill="none" stroke="black" d="M248,-763.5C248,-769.5 242,-775.5 236,-775.5"/>
<polyline fill="none" stroke="black" points="236,-775.5 13,-775.5 "/>
<path fill="none" stroke="black" d="M13,-775.5C7,-775.5 1,-769.5 1,-763.5"/>
<polyline fill="none" stroke="black" points="1,-763.5 1,-559.5 "/>
<path fill="none" stroke="black" d="M1,-559.5C1,-553.5 7,-547.5 13,-547.5"/>
<text text-anchor="middle" x="124.5" y="-758.9" font-family="Times Roman,serif" font-size="14.00">PlanTasksController</text>
<polyline fill="none" stroke="black" points="1,-749.5 248,-749.5 "/>
<text text-anchor="start" x="9" y="-732.9" font-family="Times Roman,serif" font-size="14.00">_one_time_conditions_valid_234?</text>
<text text-anchor="start" x="9" y="-714.9" font-family="Times Roman,serif" font-size="14.00">create</text>
<text text-anchor="start" x="9" y="-696.9" font-family="Times Roman,serif" font-size="14.00">destroy</text>
<text text-anchor="start" x="9" y="-678.9" font-family="Times Roman,serif" font-size="14.00">edit</text>
<text text-anchor="start" x="9" y="-660.9" font-family="Times Roman,serif" font-size="14.00">index</text>
<text text-anchor="start" x="9" y="-642.9" font-family="Times Roman,serif" font-size="14.00">new</text>
<text text-anchor="start" x="9" y="-624.9" font-family="Times Roman,serif" font-size="14.00">show</text>
<text text-anchor="start" x="9" y="-606.9" font-family="Times Roman,serif" font-size="14.00">update</text>
<polyline fill="none" stroke="black" points="1,-597.5 248,-597.5 "/>
<polyline fill="none" stroke="black" points="1,-573.5 248,-573.5 "/>
<text text-anchor="start" x="9" y="-556.9" font-family="Times Roman,serif" font-size="14.00">_layout</text>
</g>
<!-- ApplicationController -->
<g id="node10" class="node"><title>ApplicationController</title>
<polyline fill="none" stroke="black" points="429,-27.5 643,-27.5 "/>
<path fill="none" stroke="black" d="M643,-27.5C649,-27.5 655,-33.5 655,-39.5"/>
<polyline fill="none" stroke="black" points="655,-39.5 655,-207.5 "/>
<path fill="none" stroke="black" d="M655,-207.5C655,-213.5 649,-219.5 643,-219.5"/>
<polyline fill="none" stroke="black" points="643,-219.5 429,-219.5 "/>
<path fill="none" stroke="black" d="M429,-219.5C423,-219.5 417,-213.5 417,-207.5"/>
<polyline fill="none" stroke="black" points="417,-207.5 417,-39.5 "/>
<path fill="none" stroke="black" d="M417,-39.5C417,-33.5 423,-27.5 429,-27.5"/>
<text text-anchor="middle" x="536" y="-202.9" font-family="Times Roman,serif" font-size="14.00">ApplicationController</text>
<polyline fill="none" stroke="black" points="417,-193.5 655,-193.5 "/>
<text text-anchor="start" x="425" y="-176.9" font-family="Times Roman,serif" font-size="14.00">_one_time_conditions_valid_76?</text>
<text text-anchor="start" x="425" y="-158.9" font-family="Times Roman,serif" font-size="14.00">assign_role</text>
<text text-anchor="start" x="425" y="-140.9" font-family="Times Roman,serif" font-size="14.00">clear_all_session</text>
<text text-anchor="start" x="425" y="-122.9" font-family="Times Roman,serif" font-size="14.00">create_repo_project</text>
<text text-anchor="start" x="425" y="-104.9" font-family="Times Roman,serif" font-size="14.00">create_user_for_repository</text>
<text text-anchor="start" x="425" y="-86.9" font-family="Times Roman,serif" font-size="14.00">current_ability</text>
<polyline fill="none" stroke="black" points="417,-77.5 655,-77.5 "/>
<polyline fill="none" stroke="black" points="417,-53.5 655,-53.5 "/>
<text text-anchor="start" x="425" y="-36.9" font-family="Times Roman,serif" font-size="14.00">_layout</text>
</g>
<!-- HomeController -->
<g id="node11" class="node"><title>HomeController</title>
<polyline fill="none" stroke="black" points="871,-261.5 1094,-261.5 "/>
<path fill="none" stroke="black" d="M1094,-261.5C1100,-261.5 1106,-267.5 1106,-273.5"/>
<polyline fill="none" stroke="black" points="1106,-273.5 1106,-369.5 "/>
<path fill="none" stroke="black" d="M1106,-369.5C1106,-375.5 1100,-381.5 1094,-381.5"/>
<polyline fill="none" stroke="black" points="1094,-381.5 871,-381.5 "/>
<path fill="none" stroke="black" d="M871,-381.5C865,-381.5 859,-375.5 859,-369.5"/>
<polyline fill="none" stroke="black" points="859,-369.5 859,-273.5 "/>
<path fill="none" stroke="black" d="M859,-273.5C859,-267.5 865,-261.5 871,-261.5"/>
<text text-anchor="middle" x="982.5" y="-364.9" font-family="Times Roman,serif" font-size="14.00">HomeController</text>
<polyline fill="none" stroke="black" points="859,-355.5 1106,-355.5 "/>
<text text-anchor="start" x="867" y="-338.9" font-family="Times Roman,serif" font-size="14.00">_one_time_conditions_valid_236?</text>
<text text-anchor="start" x="867" y="-320.9" font-family="Times Roman,serif" font-size="14.00">index</text>
<polyline fill="none" stroke="black" points="859,-311.5 1106,-311.5 "/>
<polyline fill="none" stroke="black" points="859,-287.5 1106,-287.5 "/>
<text text-anchor="start" x="867" y="-270.9" font-family="Times Roman,serif" font-size="14.00">_layout</text>
</g>
<!-- PlanMilestonesController -->
<g id="node12" class="node"><title>PlanMilestonesController</title>
<polyline fill="none" stroke="black" points="13,-261.5 236,-261.5 "/>
<path fill="none" stroke="black" d="M236,-261.5C242,-261.5 248,-267.5 248,-273.5"/>
<polyline fill="none" stroke="black" points="248,-273.5 248,-477.5 "/>
<path fill="none" stroke="black" d="M248,-477.5C248,-483.5 242,-489.5 236,-489.5"/>
<polyline fill="none" stroke="black" points="236,-489.5 13,-489.5 "/>
<path fill="none" stroke="black" d="M13,-489.5C7,-489.5 1,-483.5 1,-477.5"/>
<polyline fill="none" stroke="black" points="1,-477.5 1,-273.5 "/>
<path fill="none" stroke="black" d="M1,-273.5C1,-267.5 7,-261.5 13,-261.5"/>
<text text-anchor="middle" x="124.5" y="-472.9" font-family="Times Roman,serif" font-size="14.00">PlanMilestonesController</text>
<polyline fill="none" stroke="black" points="1,-463.5 248,-463.5 "/>
<text text-anchor="start" x="9" y="-446.9" font-family="Times Roman,serif" font-size="14.00">_one_time_conditions_valid_240?</text>
<text text-anchor="start" x="9" y="-428.9" font-family="Times Roman,serif" font-size="14.00">create</text>
<text text-anchor="start" x="9" y="-410.9" font-family="Times Roman,serif" font-size="14.00">destroy</text>
<text text-anchor="start" x="9" y="-392.9" font-family="Times Roman,serif" font-size="14.00">edit</text>
<text text-anchor="start" x="9" y="-374.9" font-family="Times Roman,serif" font-size="14.00">index</text>
<text text-anchor="start" x="9" y="-356.9" font-family="Times Roman,serif" font-size="14.00">new</text>
<text text-anchor="start" x="9" y="-338.9" font-family="Times Roman,serif" font-size="14.00">show</text>
<text text-anchor="start" x="9" y="-320.9" font-family="Times Roman,serif" font-size="14.00">update</text>
<polyline fill="none" stroke="black" points="1,-311.5 248,-311.5 "/>
<polyline fill="none" stroke="black" points="1,-287.5 248,-287.5 "/>
<text text-anchor="start" x="9" y="-270.9" font-family="Times Roman,serif" font-size="14.00">_layout</text>
</g>
</g>
</svg>
