<?xml version="1.0" encoding="UTF-8" standalone="no"?>
<!DOCTYPE svg PUBLIC "-//W3C//DTD SVG 1.1//EN"
 "http://www.w3.org/Graphics/SVG/1.1/DTD/svg11.dtd">
<!-- Generated by graphviz version 2.26.3 (20100126.1600)
 -->
<!-- Title: models_diagram Pages: 1 -->
<svg width="1014pt" height="398pt"
 viewBox="0.00 0.00 1014.00 398.00" xmlns="http://www.w3.org/2000/svg" xmlns:xlink="http://www.w3.org/1999/xlink">
<g id="graph1" class="graph" transform="scale(1 1) rotate(0) translate(4 394)">
<title>models_diagram</title>
<polygon fill="white" stroke="white" points="-4,5 -4,-394 1011,-394 1011,5 -4,5"/>
<!-- _diagram_info -->
<g id="node1" class="node"><title>_diagram_info</title>
<text text-anchor="start" x="8" y="-373.8" font-family="Times Roman,serif" font-size="13.00">Models diagram</text>
<text text-anchor="start" x="8" y="-356.8" font-family="Times Roman,serif" font-size="13.00">Date: Jun 26 2012 &#45; 21:22</text>
<text text-anchor="start" x="8" y="-339.8" font-family="Times Roman,serif" font-size="13.00">Migration version: 20120626115106</text>
<text text-anchor="start" x="8" y="-322.8" font-family="Times Roman,serif" font-size="13.00">Generated by RailRoady 1.0.7</text>
<text text-anchor="start" x="8" y="-305.8" font-family="Times Roman,serif" font-size="13.00">http://railroady.prestonlee.com</text>
</g>
<!-- Role -->
<g id="node2" class="node"><title>Role</title>
<ellipse fill="none" stroke="black" cx="338" cy="-241" rx="32.0265" ry="18.3848"/>
<text text-anchor="middle" x="338" y="-237.4" font-family="Times Roman,serif" font-size="14.00">Role</text>
</g>
<!-- User -->
<g id="node4" class="node"><title>User</title>
<ellipse fill="none" stroke="black" cx="338" cy="-167" rx="33.9411" ry="18.3848"/>
<text text-anchor="middle" x="338" y="-163.4" font-family="Times Roman,serif" font-size="14.00">User</text>
</g>
<!-- Role&#45;&gt;User -->
<g id="edge2" class="edge"><title>Role&#45;&gt;User</title>
<path fill="none" stroke="#a1c1b0" d="M338,-212.282C338,-206.836 338,-201.138 338,-195.693"/>
<polygon fill="#a1c1b0" stroke="#a1c1b0" points="338,-212.327 333.5,-222.327 338,-217.327 338,-222.327 338,-222.327 338,-222.327 338,-217.327 342.5,-222.327 338,-212.327 338,-212.327"/>
<polygon fill="#a1c1b0" stroke="#a1c1b0" points="338,-195.667 342.5,-185.667 338,-190.667 338,-185.667 338,-185.667 338,-185.667 338,-190.667 333.5,-185.667 338,-195.667 338,-195.667"/>
</g>
<!-- PlanUser -->
<g id="node3" class="node"><title>PlanUser</title>
<ellipse fill="none" stroke="black" cx="585" cy="-343" rx="55.1543" ry="18.3848"/>
<text text-anchor="middle" x="585" y="-339.4" font-family="Times Roman,serif" font-size="14.00">PlanUser</text>
</g>
<!-- PlanWorkpackage -->
<g id="node5" class="node"><title>PlanWorkpackage</title>
<ellipse fill="none" stroke="black" cx="511" cy="-241" rx="98.9949" ry="18.3848"/>
<text text-anchor="middle" x="511" y="-237.4" font-family="Times Roman,serif" font-size="14.00">PlanWorkpackage</text>
</g>
<!-- PlanDeliverable -->
<g id="node13" class="node"><title>PlanDeliverable</title>
<ellipse fill="none" stroke="black" cx="618" cy="-19" rx="87.889" ry="18.3848"/>
<text text-anchor="middle" x="618" y="-15.4" font-family="Times Roman,serif" font-size="14.00">PlanDeliverable</text>
</g>
<!-- PlanWorkpackage&#45;&gt;PlanDeliverable -->
<g id="edge6" class="edge"><title>PlanWorkpackage&#45;&gt;PlanDeliverable</title>
<path fill="none" stroke="#474822" d="M516.549,-214.296C524.436,-180.076 541.005,-119.72 568,-74 574.191,-63.5147 582.611,-53.2867 590.776,-44.5508"/>
<ellipse fill="none" stroke="#474822" cx="515.606" cy="-218.505" rx="4.00001" ry="4.00001"/>
<polygon fill="#474822" stroke="#474822" points="590.859,-44.4655 601.052,-40.4229 594.341,-40.8772 597.823,-37.289 597.823,-37.289 597.823,-37.289 594.341,-40.8772 594.594,-34.1552 590.859,-44.4655 590.859,-44.4655"/>
</g>
<!-- PlanTask -->
<g id="node14" class="node"><title>PlanTask</title>
<ellipse fill="none" stroke="black" cx="458" cy="-19" rx="53.9477" ry="18.3848"/>
<text text-anchor="middle" x="458" y="-15.4" font-family="Times Roman,serif" font-size="14.00">PlanTask</text>
</g>
<!-- PlanWorkpackage&#45;&gt;PlanTask -->
<g id="edge4" class="edge"><title>PlanWorkpackage&#45;&gt;PlanTask</title>
<path fill="none" stroke="#0a3b81" d="M504.679,-214.521C494.643,-172.484 475.146,-90.8173 464.811,-47.53"/>
<ellipse fill="none" stroke="#0a3b81" cx="505.644" cy="-218.564" rx="4.00001" ry="4.00001"/>
<polygon fill="#0a3b81" stroke="#0a3b81" points="464.774,-47.3757 466.829,-36.6041 463.613,-42.5124 462.452,-37.6491 462.452,-37.6491 462.452,-37.6491 463.613,-42.5124 458.075,-38.6941 464.774,-47.3757 464.774,-47.3757"/>
</g>
<!-- Ability -->
<g id="node6" class="node"><title>Ability</title>
<polygon fill="none" stroke="black" points="870,-361 810,-361 810,-325 870,-325 870,-361"/>
<text text-anchor="middle" x="840" y="-339.4" font-family="Times Roman,serif" font-size="14.00">Ability</text>
</g>
<!-- Project -->
<g id="node7" class="node"><title>Project</title>
<ellipse fill="none" stroke="black" cx="314" cy="-343" rx="45.9619" ry="18.3848"/>
<text text-anchor="middle" x="314" y="-339.4" font-family="Times Roman,serif" font-size="14.00">Project</text>
</g>
<!-- Project&#45;&gt;Role -->
<g id="edge8" class="edge"><title>Project&#45;&gt;Role</title>
<path fill="none" stroke="#34d614" d="M320.235,-316.499C323.618,-302.125 327.801,-284.345 331.259,-269.651"/>
<ellipse fill="none" stroke="#34d614" cx="319.318" cy="-320.398" rx="4.00001" ry="4.00001"/>
<polygon fill="#34d614" stroke="#34d614" points="331.335,-269.324 338.006,-260.62 332.481,-264.457 333.626,-259.59 333.626,-259.59 333.626,-259.59 332.481,-264.457 329.246,-258.559 331.335,-269.324 331.335,-269.324"/>
</g>
<!-- Abilityplanuser -->
<g id="node8" class="node"><title>Abilityplanuser</title>
<polygon fill="none" stroke="black" points="1006,-361 888,-361 888,-325 1006,-325 1006,-361"/>
<text text-anchor="middle" x="947" y="-339.4" font-family="Times Roman,serif" font-size="14.00">Abilityplanuser</text>
</g>
<!-- PlanProject -->
<g id="node9" class="node"><title>PlanProject</title>
<ellipse fill="none" stroke="black" cx="725" cy="-343" rx="67.1751" ry="18.3848"/>
<text text-anchor="middle" x="725" y="-339.4" font-family="Times Roman,serif" font-size="14.00">PlanProject</text>
</g>
<!-- PlanProject&#45;&gt;PlanWorkpackage -->
<g id="edge10" class="edge"><title>PlanProject&#45;&gt;PlanWorkpackage</title>
<path fill="none" stroke="#998054" d="M692.543,-321.194C679.333,-312.781 663.73,-303.419 649,-296 622.856,-282.833 592.768,-270.53 567.372,-260.913"/>
<ellipse fill="none" stroke="#998054" cx="696.253" cy="-323.585" rx="4.00002" ry="4.00002"/>
<polygon fill="#998054" stroke="#998054" points="567.252,-260.868 559.464,-253.148 562.57,-259.116 557.887,-257.363 557.887,-257.363 557.887,-257.363 562.57,-259.116 556.309,-261.577 567.252,-260.868 567.252,-260.868"/>
</g>
<!-- PlanOrganization -->
<g id="node12" class="node"><title>PlanOrganization</title>
<ellipse fill="none" stroke="black" cx="725" cy="-241" rx="96.8736" ry="18.3848"/>
<text text-anchor="middle" x="725" y="-237.4" font-family="Times Roman,serif" font-size="14.00">PlanOrganization</text>
</g>
<!-- PlanProject&#45;&gt;PlanOrganization -->
<g id="edge14" class="edge"><title>PlanProject&#45;&gt;PlanOrganization</title>
<path fill="none" stroke="#5a7af5" d="M725,-314.054C725,-300.256 725,-283.791 725,-269.987"/>
<polygon fill="#5a7af5" stroke="#5a7af5" points="725,-314.292 720.5,-324.292 725,-319.292 725,-324.292 725,-324.292 725,-324.292 725,-319.292 729.5,-324.292 725,-314.292 725,-314.292"/>
<polygon fill="#5a7af5" stroke="#5a7af5" points="725,-269.59 729.5,-259.59 725,-264.59 725,-259.59 725,-259.59 725,-259.59 725,-264.59 720.5,-259.59 725,-269.59 725,-269.59"/>
</g>
<!-- PlanMilestone -->
<g id="node15" class="node"><title>PlanMilestone</title>
<ellipse fill="none" stroke="black" cx="920" cy="-241" rx="79.9031" ry="18.3848"/>
<text text-anchor="middle" x="920" y="-237.4" font-family="Times Roman,serif" font-size="14.00">PlanMilestone</text>
</g>
<!-- PlanProject&#45;&gt;PlanMilestone -->
<g id="edge12" class="edge"><title>PlanProject&#45;&gt;PlanMilestone</title>
<path fill="none" stroke="#595b52" d="M757.982,-321.397C771.153,-313.091 786.589,-303.749 801,-296 824.064,-283.597 850.436,-271.232 872.482,-261.377"/>
<ellipse fill="none" stroke="#595b52" cx="754.294" cy="-323.743" rx="4.00002" ry="4.00002"/>
<polygon fill="#595b52" stroke="#595b52" points="872.501,-261.369 883.467,-261.428 877.072,-259.342 881.643,-257.315 881.643,-257.315 881.643,-257.315 877.072,-259.342 879.819,-253.201 872.501,-261.369 872.501,-261.369"/>
</g>
<!-- PlanResource -->
<g id="node10" class="node"><title>PlanResource</title>
<ellipse fill="none" stroke="black" cx="725" cy="-167" rx="77.0746" ry="18.3848"/>
<text text-anchor="middle" x="725" y="-163.4" font-family="Times Roman,serif" font-size="14.00">PlanResource</text>
</g>
<!-- PlanElement -->
<g id="node11" class="node"><title>PlanElement</title>
<ellipse fill="none" stroke="black" cx="650" cy="-93" rx="73.0388" ry="18.3848"/>
<text text-anchor="middle" x="650" y="-89.4" font-family="Times Roman,serif" font-size="14.00">PlanElement</text>
</g>
<!-- PlanResource&#45;&gt;PlanElement -->
<g id="edge18" class="edge"><title>PlanResource&#45;&gt;PlanElement</title>
<path fill="none" stroke="#6aedbc" d="M699.321,-141.663C691.68,-134.124 683.309,-125.865 675.669,-118.327"/>
<polygon fill="#6aedbc" stroke="#6aedbc" points="699.342,-141.684 703.3,-151.911 702.901,-145.196 706.461,-148.708 706.461,-148.708 706.461,-148.708 702.901,-145.196 709.621,-145.505 699.342,-141.684 699.342,-141.684"/>
<polygon fill="#6aedbc" stroke="#6aedbc" points="675.444,-118.105 671.487,-107.878 671.885,-114.593 668.326,-111.082 668.326,-111.082 668.326,-111.082 671.885,-114.593 665.166,-114.285 675.444,-118.105 675.444,-118.105"/>
</g>
<!-- PlanElementResource -->
<g id="node17" class="node"><title>PlanElementResource</title>
<ellipse fill="none" stroke="black" cx="841" cy="-19" rx="116.88" ry="18.3848"/>
<text text-anchor="middle" x="841" y="-15.4" font-family="Times Roman,serif" font-size="14.00">PlanElementResource</text>
</g>
<!-- PlanResource&#45;&gt;PlanElementResource -->
<g id="edge16" class="edge"><title>PlanResource&#45;&gt;PlanElementResource</title>
<path fill="none" stroke="#a49b99" d="M744.43,-142.21C765.374,-115.489 798.59,-73.1094 820.091,-45.6772"/>
<ellipse fill="none" stroke="#a49b99" cx="741.924" cy="-145.407" rx="4.00002" ry="4.00002"/>
<polygon fill="#a49b99" stroke="#a49b99" points="820.192,-45.5481 829.903,-40.4535 823.276,-41.6128 826.361,-37.6775 826.361,-37.6775 826.361,-37.6775 823.276,-41.6128 822.819,-34.9015 820.192,-45.5481 820.192,-45.5481"/>
</g>
<!-- PlanElement&#45;&gt;PlanDeliverable -->
<g id="edge24" class="edge"><title>PlanElement&#45;&gt;PlanDeliverable</title>
<path fill="none" stroke="black" d="M641.925,-74.3267C637.074,-63.1088 630.923,-48.8841 626.072,-37.6674"/>
</g>
<!-- PlanElement&#45;&gt;PlanTask -->
<g id="edge26" class="edge"><title>PlanElement&#45;&gt;PlanTask</title>
<path fill="none" stroke="black" d="M609.751,-77.4872C575.552,-64.3066 526.91,-45.5589 493.988,-32.8703"/>
</g>
<!-- PlanElement&#45;&gt;PlanElementResource -->
<g id="edge20" class="edge"><title>PlanElement&#45;&gt;PlanElementResource</title>
<path fill="none" stroke="#5b8430" d="M697.557,-74.5749C724.704,-64.0569 758.831,-50.8349 786.987,-39.9266"/>
<ellipse fill="none" stroke="#5b8430" cx="693.77" cy="-76.0421" rx="4.00001" ry="4.00001"/>
<polygon fill="#5b8430" stroke="#5b8430" points="787.351,-39.7857 798.301,-40.369 792.013,-37.9793 796.675,-36.1729 796.675,-36.1729 796.675,-36.1729 792.013,-37.9793 795.05,-31.9768 787.351,-39.7857 787.351,-39.7857"/>
</g>
<!-- PlanOrganization&#45;&gt;PlanResource -->
<g id="edge22" class="edge"><title>PlanOrganization&#45;&gt;PlanResource</title>
<path fill="none" stroke="#2c1e46" d="M725,-214.309C725,-208.377 725,-202.061 725,-196.04"/>
<ellipse fill="none" stroke="#2c1e46" cx="725" cy="-218.327" rx="4" ry="4"/>
<polygon fill="#2c1e46" stroke="#2c1e46" points="725,-195.667 729.5,-185.667 725,-190.667 725,-185.667 725,-185.667 725,-185.667 725,-190.667 720.5,-185.667 725,-195.667 725,-195.667"/>
</g>
<!-- Deliverable -->
<g id="node16" class="node"><title>Deliverable</title>
<ellipse fill="none" stroke="black" cx="445" cy="-343" rx="67.1751" ry="18.3848"/>
<text text-anchor="middle" x="445" y="-339.4" font-family="Times Roman,serif" font-size="14.00">Deliverable</text>
</g>
<!-- Deliverable&#45;&gt;Role -->
<g id="edge28" class="edge"><title>Deliverable&#45;&gt;Role</title>
<path fill="none" stroke="#5337dc" d="M419.911,-319.083C402.53,-302.515 379.515,-280.575 362.308,-264.172"/>
<ellipse fill="none" stroke="#5337dc" cx="422.975" cy="-322.004" rx="4.00002" ry="4.00002"/>
<polygon fill="#5337dc" stroke="#5337dc" points="362.089,-263.964 357.956,-253.807 358.47,-260.514 354.851,-257.064 354.851,-257.064 354.851,-257.064 358.47,-260.514 351.746,-260.321 362.089,-263.964 362.089,-263.964"/>
</g>
</g>
</svg>
