<?xml version="1.0" encoding="UTF-8" standalone="no"?>
<!DOCTYPE svg PUBLIC "-//W3C//DTD SVG 1.1//EN"
 "http://www.w3.org/Graphics/SVG/1.1/DTD/svg11.dtd">
<!-- Generated by graphviz version 2.26.3 (20100126.1600)
 -->
<!-- Title: models_diagram Pages: 1 -->
<svg width="1396pt" height="1016pt"
 viewBox="0.00 0.00 1396.00 1016.00" xmlns="http://www.w3.org/2000/svg" xmlns:xlink="http://www.w3.org/1999/xlink">
<g id="graph1" class="graph" transform="scale(1 1) rotate(0) translate(4 1012)">
<title>models_diagram</title>
<polygon fill="white" stroke="white" points="-4,5 -4,-1012 1393,-1012 1393,5 -4,5"/>
<!-- _diagram_info -->
<g id="node1" class="node"><title>_diagram_info</title>
<text text-anchor="start" x="8" y="-921.8" font-family="Times Roman,serif" font-size="13.00">Models diagram</text>
<text text-anchor="start" x="8" y="-904.8" font-family="Times Roman,serif" font-size="13.00">Date: Jun 26 2012 &#45; 21:22</text>
<text text-anchor="start" x="8" y="-887.8" font-family="Times Roman,serif" font-size="13.00">Migration version: 20120626115106</text>
<text text-anchor="start" x="8" y="-870.8" font-family="Times Roman,serif" font-size="13.00">Generated by RailRoady 1.0.7</text>
<text text-anchor="start" x="8" y="-853.8" font-family="Times Roman,serif" font-size="13.00">http://railroady.prestonlee.com</text>
</g>
<!-- Role -->
<g id="node2" class="node"><title>Role</title>
<polyline fill="none" stroke="black" points="392.5,-613 533.5,-613 "/>
<path fill="none" stroke="black" d="M533.5,-613C539.5,-613 545.5,-619 545.5,-625"/>
<polyline fill="none" stroke="black" points="545.5,-625 545.5,-707 "/>
<path fill="none" stroke="black" d="M545.5,-707C545.5,-713 539.5,-719 533.5,-719"/>
<polyline fill="none" stroke="black" points="533.5,-719 392.5,-719 "/>
<path fill="none" stroke="black" d="M392.5,-719C386.5,-719 380.5,-713 380.5,-707"/>
<polyline fill="none" stroke="black" points="380.5,-707 380.5,-625 "/>
<path fill="none" stroke="black" d="M380.5,-625C380.5,-619 386.5,-613 392.5,-613"/>
<text text-anchor="middle" x="463" y="-702.4" font-family="Times Roman,serif" font-size="14.00">Role</text>
<polyline fill="none" stroke="black" points="380.5,-693 545.5,-693 "/>
<text text-anchor="start" x="388.5" y="-676.4" font-family="Times Roman,serif" font-size="14.00">name :string</text>
<text text-anchor="start" x="388.5" y="-658.4" font-family="Times Roman,serif" font-size="14.00">resource_type :string</text>
<text text-anchor="start" x="388.5" y="-640.4" font-family="Times Roman,serif" font-size="14.00">created_at :datetime</text>
<text text-anchor="start" x="388.5" y="-622.4" font-family="Times Roman,serif" font-size="14.00">updated_at :datetime</text>
</g>
<!-- User -->
<g id="node4" class="node"><title>User</title>
<polyline fill="none" stroke="black" points="348,-325 578,-325 "/>
<path fill="none" stroke="black" d="M578,-325C584,-325 590,-331 590,-337"/>
<polyline fill="none" stroke="black" points="590,-337 590,-545 "/>
<path fill="none" stroke="black" d="M590,-545C590,-551 584,-557 578,-557"/>
<polyline fill="none" stroke="black" points="578,-557 348,-557 "/>
<path fill="none" stroke="black" d="M348,-557C342,-557 336,-551 336,-545"/>
<polyline fill="none" stroke="black" points="336,-545 336,-337 "/>
<path fill="none" stroke="black" d="M336,-337C336,-331 342,-325 348,-325"/>
<text text-anchor="middle" x="463" y="-540.4" font-family="Times Roman,serif" font-size="14.00">User</text>
<polyline fill="none" stroke="black" points="336,-531 590,-531 "/>
<text text-anchor="start" x="344" y="-514.4" font-family="Times Roman,serif" font-size="14.00">email :string</text>
<text text-anchor="start" x="344" y="-496.4" font-family="Times Roman,serif" font-size="14.00">encrypted_password :string</text>
<text text-anchor="start" x="344" y="-478.4" font-family="Times Roman,serif" font-size="14.00">reset_password_token :string</text>
<text text-anchor="start" x="344" y="-460.4" font-family="Times Roman,serif" font-size="14.00">reset_password_sent_at :datetime</text>
<text text-anchor="start" x="344" y="-442.4" font-family="Times Roman,serif" font-size="14.00">remember_created_at :datetime</text>
<text text-anchor="start" x="344" y="-424.4" font-family="Times Roman,serif" font-size="14.00">current_sign_in_at :datetime</text>
<text text-anchor="start" x="344" y="-406.4" font-family="Times Roman,serif" font-size="14.00">last_sign_in_at :datetime</text>
<text text-anchor="start" x="344" y="-388.4" font-family="Times Roman,serif" font-size="14.00">current_sign_in_ip :string</text>
<text text-anchor="start" x="344" y="-370.4" font-family="Times Roman,serif" font-size="14.00">last_sign_in_ip :string</text>
<text text-anchor="start" x="344" y="-352.4" font-family="Times Roman,serif" font-size="14.00">created_at :datetime</text>
<text text-anchor="start" x="344" y="-334.4" font-family="Times Roman,serif" font-size="14.00">updated_at :datetime</text>
</g>
<!-- Role&#45;&gt;User -->
<g id="edge2" class="edge"><title>Role&#45;&gt;User</title>
<path fill="none" stroke="#bd039a" d="M463,-602.797C463,-591.62 463,-579.633 463,-567.424"/>
<polygon fill="#bd039a" stroke="#bd039a" points="463,-602.963 458.5,-612.963 463,-607.963 463,-612.963 463,-612.963 463,-612.963 463,-607.963 467.5,-612.963 463,-602.963 463,-602.963"/>
<polygon fill="#bd039a" stroke="#bd039a" points="463,-567.129 467.5,-557.129 463,-562.129 463,-557.129 463,-557.129 463,-557.129 463,-562.129 458.5,-557.129 463,-567.129 463,-567.129"/>
</g>
<!-- PlanUser -->
<g id="node3" class="node"><title>PlanUser</title>
<polyline fill="none" stroke="black" points="732,-775 962,-775 "/>
<path fill="none" stroke="black" d="M962,-775C968,-775 974,-781 974,-787"/>
<polyline fill="none" stroke="black" points="974,-787 974,-995 "/>
<path fill="none" stroke="black" d="M974,-995C974,-1001 968,-1007 962,-1007"/>
<polyline fill="none" stroke="black" points="962,-1007 732,-1007 "/>
<path fill="none" stroke="black" d="M732,-1007C726,-1007 720,-1001 720,-995"/>
<polyline fill="none" stroke="black" points="720,-995 720,-787 "/>
<path fill="none" stroke="black" d="M720,-787C720,-781 726,-775 732,-775"/>
<text text-anchor="middle" x="847" y="-990.4" font-family="Times Roman,serif" font-size="14.00">PlanUser</text>
<polyline fill="none" stroke="black" points="720,-981 974,-981 "/>
<text text-anchor="start" x="728" y="-964.4" font-family="Times Roman,serif" font-size="14.00">email :string</text>
<text text-anchor="start" x="728" y="-946.4" font-family="Times Roman,serif" font-size="14.00">encrypted_password :string</text>
<text text-anchor="start" x="728" y="-928.4" font-family="Times Roman,serif" font-size="14.00">reset_password_token :string</text>
<text text-anchor="start" x="728" y="-910.4" font-family="Times Roman,serif" font-size="14.00">reset_password_sent_at :datetime</text>
<text text-anchor="start" x="728" y="-892.4" font-family="Times Roman,serif" font-size="14.00">remember_created_at :datetime</text>
<text text-anchor="start" x="728" y="-874.4" font-family="Times Roman,serif" font-size="14.00">current_sign_in_at :datetime</text>
<text text-anchor="start" x="728" y="-856.4" font-family="Times Roman,serif" font-size="14.00">last_sign_in_at :datetime</text>
<text text-anchor="start" x="728" y="-838.4" font-family="Times Roman,serif" font-size="14.00">current_sign_in_ip :string</text>
<text text-anchor="start" x="728" y="-820.4" font-family="Times Roman,serif" font-size="14.00">last_sign_in_ip :string</text>
<text text-anchor="start" x="728" y="-802.4" font-family="Times Roman,serif" font-size="14.00">created_at :datetime</text>
<text text-anchor="start" x="728" y="-784.4" font-family="Times Roman,serif" font-size="14.00">updated_at :datetime</text>
</g>
<!-- PlanWorkpackage -->
<g id="node5" class="node"><title>PlanWorkpackage</title>
<polyline fill="none" stroke="black" points="821.5,-604 962.5,-604 "/>
<path fill="none" stroke="black" d="M962.5,-604C968.5,-604 974.5,-610 974.5,-616"/>
<polyline fill="none" stroke="black" points="974.5,-616 974.5,-716 "/>
<path fill="none" stroke="black" d="M974.5,-716C974.5,-722 968.5,-728 962.5,-728"/>
<polyline fill="none" stroke="black" points="962.5,-728 821.5,-728 "/>
<path fill="none" stroke="black" d="M821.5,-728C815.5,-728 809.5,-722 809.5,-716"/>
<polyline fill="none" stroke="black" points="809.5,-716 809.5,-616 "/>
<path fill="none" stroke="black" d="M809.5,-616C809.5,-610 815.5,-604 821.5,-604"/>
<text text-anchor="middle" x="892" y="-711.4" font-family="Times Roman,serif" font-size="14.00">PlanWorkpackage</text>
<polyline fill="none" stroke="black" points="809.5,-702 974.5,-702 "/>
<text text-anchor="start" x="817.5" y="-685.4" font-family="Times Roman,serif" font-size="14.00">title :string</text>
<text text-anchor="start" x="817.5" y="-667.4" font-family="Times Roman,serif" font-size="14.00">wp_type :string</text>
<text text-anchor="start" x="817.5" y="-649.4" font-family="Times Roman,serif" font-size="14.00">created_at :datetime</text>
<text text-anchor="start" x="817.5" y="-631.4" font-family="Times Roman,serif" font-size="14.00">updated_at :datetime</text>
<text text-anchor="start" x="817.5" y="-613.4" font-family="Times Roman,serif" font-size="14.00">description :text</text>
</g>
<!-- PlanDeliverable -->
<g id="node13" class="node"><title>PlanDeliverable</title>
<polyline fill="none" stroke="black" points="966.5,-1 1107.5,-1 "/>
<path fill="none" stroke="black" d="M1107.5,-1C1113.5,-1 1119.5,-7 1119.5,-13"/>
<polyline fill="none" stroke="black" points="1119.5,-13 1119.5,-113 "/>
<path fill="none" stroke="black" d="M1119.5,-113C1119.5,-119 1113.5,-125 1107.5,-125"/>
<polyline fill="none" stroke="black" points="1107.5,-125 966.5,-125 "/>
<path fill="none" stroke="black" d="M966.5,-125C960.5,-125 954.5,-119 954.5,-113"/>
<polyline fill="none" stroke="black" points="954.5,-113 954.5,-13 "/>
<path fill="none" stroke="black" d="M954.5,-13C954.5,-7 960.5,-1 966.5,-1"/>
<text text-anchor="middle" x="1037" y="-108.4" font-family="Times Roman,serif" font-size="14.00">PlanDeliverable</text>
<polyline fill="none" stroke="black" points="954.5,-99 1119.5,-99 "/>
<text text-anchor="start" x="962.5" y="-82.4" font-family="Times Roman,serif" font-size="14.00">description :string</text>
<text text-anchor="start" x="962.5" y="-64.4" font-family="Times Roman,serif" font-size="14.00">start_date :date</text>
<text text-anchor="start" x="962.5" y="-46.4" font-family="Times Roman,serif" font-size="14.00">end_date :date</text>
<text text-anchor="start" x="962.5" y="-28.4" font-family="Times Roman,serif" font-size="14.00">created_at :datetime</text>
<text text-anchor="start" x="962.5" y="-10.4" font-family="Times Roman,serif" font-size="14.00">updated_at :datetime</text>
</g>
<!-- PlanWorkpackage&#45;&gt;PlanDeliverable -->
<g id="edge6" class="edge"><title>PlanWorkpackage&#45;&gt;PlanDeliverable</title>
<path fill="none" stroke="#113ac6" d="M891.364,-595.509C892.8,-495.401 904.222,-307.993 964,-162 967.925,-152.415 972.982,-142.909 978.603,-133.795"/>
<ellipse fill="none" stroke="#113ac6" cx="891.313" cy="-599.743" rx="4" ry="4"/>
<polygon fill="#113ac6" stroke="#113ac6" points="978.731,-133.595 987.929,-127.624 981.438,-129.392 984.145,-125.188 984.145,-125.188 984.145,-125.188 981.438,-129.392 980.362,-122.752 978.731,-133.595 978.731,-133.595"/>
</g>
<!-- PlanTask -->
<g id="node14" class="node"><title>PlanTask</title>
<polyline fill="none" stroke="black" points="784.5,-1 925.5,-1 "/>
<path fill="none" stroke="black" d="M925.5,-1C931.5,-1 937.5,-7 937.5,-13"/>
<polyline fill="none" stroke="black" points="937.5,-13 937.5,-113 "/>
<path fill="none" stroke="black" d="M937.5,-113C937.5,-119 931.5,-125 925.5,-125"/>
<polyline fill="none" stroke="black" points="925.5,-125 784.5,-125 "/>
<path fill="none" stroke="black" d="M784.5,-125C778.5,-125 772.5,-119 772.5,-113"/>
<polyline fill="none" stroke="black" points="772.5,-113 772.5,-13 "/>
<path fill="none" stroke="black" d="M772.5,-13C772.5,-7 778.5,-1 784.5,-1"/>
<text text-anchor="middle" x="855" y="-108.4" font-family="Times Roman,serif" font-size="14.00">PlanTask</text>
<polyline fill="none" stroke="black" points="772.5,-99 937.5,-99 "/>
<text text-anchor="start" x="780.5" y="-82.4" font-family="Times Roman,serif" font-size="14.00">description :string</text>
<text text-anchor="start" x="780.5" y="-64.4" font-family="Times Roman,serif" font-size="14.00">start_date :date</text>
<text text-anchor="start" x="780.5" y="-46.4" font-family="Times Roman,serif" font-size="14.00">end_date :date</text>
<text text-anchor="start" x="780.5" y="-28.4" font-family="Times Roman,serif" font-size="14.00">created_at :datetime</text>
<text text-anchor="start" x="780.5" y="-10.4" font-family="Times Roman,serif" font-size="14.00">updated_at :datetime</text>
</g>
<!-- PlanWorkpackage&#45;&gt;PlanTask -->
<g id="edge4" class="edge"><title>PlanWorkpackage&#45;&gt;PlanTask</title>
<path fill="none" stroke="#1f926f" d="M887.689,-595.748C880.617,-480.494 866.623,-252.426 859.457,-135.637"/>
<ellipse fill="none" stroke="#1f926f" cx="887.935" cy="-599.747" rx="4" ry="4"/>
<polygon fill="#1f926f" stroke="#1f926f" points="859.44,-135.354 863.319,-125.097 859.133,-130.363 858.827,-125.373 858.827,-125.373 858.827,-125.373 859.133,-130.363 854.336,-125.648 859.44,-135.354 859.44,-135.354"/>
</g>
<!-- Ability -->
<g id="node6" class="node"><title>Ability</title>
<polygon fill="none" stroke="black" points="1174,-865 1174,-917 1234,-917 1234,-865 1174,-865"/>
<text text-anchor="middle" x="1204" y="-900.4" font-family="Times Roman,serif" font-size="14.00">Ability</text>
<polyline fill="none" stroke="black" points="1174,-891 1234,-891 "/>
<text text-anchor="middle" x="1204" y="-874.4" font-family="Times Roman,serif" font-size="14.00"> </text>
</g>
<!-- Project -->
<g id="node7" class="node"><title>Project</title>
<polyline fill="none" stroke="black" points="279.5,-838 420.5,-838 "/>
<path fill="none" stroke="black" d="M420.5,-838C426.5,-838 432.5,-844 432.5,-850"/>
<polyline fill="none" stroke="black" points="432.5,-850 432.5,-932 "/>
<path fill="none" stroke="black" d="M432.5,-932C432.5,-938 426.5,-944 420.5,-944"/>
<polyline fill="none" stroke="black" points="420.5,-944 279.5,-944 "/>
<path fill="none" stroke="black" d="M279.5,-944C273.5,-944 267.5,-938 267.5,-932"/>
<polyline fill="none" stroke="black" points="267.5,-932 267.5,-850 "/>
<path fill="none" stroke="black" d="M267.5,-850C267.5,-844 273.5,-838 279.5,-838"/>
<text text-anchor="middle" x="350" y="-927.4" font-family="Times Roman,serif" font-size="14.00">Project</text>
<polyline fill="none" stroke="black" points="267.5,-918 432.5,-918 "/>
<text text-anchor="start" x="275.5" y="-901.4" font-family="Times Roman,serif" font-size="14.00">name :string</text>
<text text-anchor="start" x="275.5" y="-883.4" font-family="Times Roman,serif" font-size="14.00">description :text</text>
<text text-anchor="start" x="275.5" y="-865.4" font-family="Times Roman,serif" font-size="14.00">created_at :datetime</text>
<text text-anchor="start" x="275.5" y="-847.4" font-family="Times Roman,serif" font-size="14.00">updated_at :datetime</text>
</g>
<!-- Project&#45;&gt;Role -->
<g id="edge8" class="edge"><title>Project&#45;&gt;Role</title>
<path fill="none" stroke="#4b914c" d="M380.296,-830.676C396.197,-799.015 415.655,-760.272 431.701,-728.32"/>
<ellipse fill="none" stroke="#4b914c" cx="378.432" cy="-834.389" rx="4.00002" ry="4.00002"/>
<polygon fill="#4b914c" stroke="#4b914c" points="431.859,-728.007 440.368,-721.09 434.103,-723.538 436.347,-719.07 436.347,-719.07 436.347,-719.07 434.103,-723.538 432.326,-717.051 431.859,-728.007 431.859,-728.007"/>
</g>
<!-- Abilityplanuser -->
<g id="node8" class="node"><title>Abilityplanuser</title>
<polygon fill="none" stroke="black" points="1251.5,-865 1251.5,-917 1370.5,-917 1370.5,-865 1251.5,-865"/>
<text text-anchor="middle" x="1311" y="-900.4" font-family="Times Roman,serif" font-size="14.00">Abilityplanuser</text>
<polyline fill="none" stroke="black" points="1251.5,-891 1370.5,-891 "/>
<text text-anchor="middle" x="1311" y="-874.4" font-family="Times Roman,serif" font-size="14.00"> </text>
</g>
<!-- PlanProject -->
<g id="node9" class="node"><title>PlanProject</title>
<polyline fill="none" stroke="black" points="1003.5,-838 1144.5,-838 "/>
<path fill="none" stroke="black" d="M1144.5,-838C1150.5,-838 1156.5,-844 1156.5,-850"/>
<polyline fill="none" stroke="black" points="1156.5,-850 1156.5,-932 "/>
<path fill="none" stroke="black" d="M1156.5,-932C1156.5,-938 1150.5,-944 1144.5,-944"/>
<polyline fill="none" stroke="black" points="1144.5,-944 1003.5,-944 "/>
<path fill="none" stroke="black" d="M1003.5,-944C997.5,-944 991.5,-938 991.5,-932"/>
<polyline fill="none" stroke="black" points="991.5,-932 991.5,-850 "/>
<path fill="none" stroke="black" d="M991.5,-850C991.5,-844 997.5,-838 1003.5,-838"/>
<text text-anchor="middle" x="1074" y="-927.4" font-family="Times Roman,serif" font-size="14.00">PlanProject</text>
<polyline fill="none" stroke="black" points="991.5,-918 1156.5,-918 "/>
<text text-anchor="start" x="999.5" y="-901.4" font-family="Times Roman,serif" font-size="14.00">name :string</text>
<text text-anchor="start" x="999.5" y="-883.4" font-family="Times Roman,serif" font-size="14.00">description :text</text>
<text text-anchor="start" x="999.5" y="-865.4" font-family="Times Roman,serif" font-size="14.00">created_at :datetime</text>
<text text-anchor="start" x="999.5" y="-847.4" font-family="Times Roman,serif" font-size="14.00">updated_at :datetime</text>
</g>
<!-- PlanProject&#45;&gt;PlanWorkpackage -->
<g id="edge10" class="edge"><title>PlanProject&#45;&gt;PlanWorkpackage</title>
<path fill="none" stroke="#0242fe" d="M1028.24,-831.233C1013.9,-812.764 997.927,-792.435 983,-774 972.97,-761.612 962.166,-748.552 951.628,-735.959"/>
<ellipse fill="none" stroke="#0242fe" cx="1030.99" cy="-834.784" rx="4.00002" ry="4.00002"/>
<polygon fill="#0242fe" stroke="#0242fe" points="951.537,-735.85 948.558,-725.297 948.323,-732.02 945.11,-728.189 945.11,-728.189 945.11,-728.189 948.323,-732.02 941.662,-731.081 951.537,-735.85 951.537,-735.85"/>
</g>
<!-- PlanOrganization -->
<g id="node12" class="node"><title>PlanOrganization</title>
<polyline fill="none" stroke="black" points="1003.5,-595 1144.5,-595 "/>
<path fill="none" stroke="black" d="M1144.5,-595C1150.5,-595 1156.5,-601 1156.5,-607"/>
<polyline fill="none" stroke="black" points="1156.5,-607 1156.5,-725 "/>
<path fill="none" stroke="black" d="M1156.5,-725C1156.5,-731 1150.5,-737 1144.5,-737"/>
<polyline fill="none" stroke="black" points="1144.5,-737 1003.5,-737 "/>
<path fill="none" stroke="black" d="M1003.5,-737C997.5,-737 991.5,-731 991.5,-725"/>
<polyline fill="none" stroke="black" points="991.5,-725 991.5,-607 "/>
<path fill="none" stroke="black" d="M991.5,-607C991.5,-601 997.5,-595 1003.5,-595"/>
<text text-anchor="middle" x="1074" y="-720.4" font-family="Times Roman,serif" font-size="14.00">PlanOrganization</text>
<polyline fill="none" stroke="black" points="991.5,-711 1156.5,-711 "/>
<text text-anchor="start" x="999.5" y="-694.4" font-family="Times Roman,serif" font-size="14.00">name :string</text>
<text text-anchor="start" x="999.5" y="-676.4" font-family="Times Roman,serif" font-size="14.00">short_name :string</text>
<text text-anchor="start" x="999.5" y="-658.4" font-family="Times Roman,serif" font-size="14.00">description :text</text>
<text text-anchor="start" x="999.5" y="-640.4" font-family="Times Roman,serif" font-size="14.00">country :string</text>
<text text-anchor="start" x="999.5" y="-622.4" font-family="Times Roman,serif" font-size="14.00">created_at :datetime</text>
<text text-anchor="start" x="999.5" y="-604.4" font-family="Times Roman,serif" font-size="14.00">updated_at :datetime</text>
</g>
<!-- PlanProject&#45;&gt;PlanOrganization -->
<g id="edge14" class="edge"><title>PlanProject&#45;&gt;PlanOrganization</title>
<path fill="none" stroke="#58973e" d="M1074,-827.848C1074,-802.904 1074,-773.922 1074,-747.433"/>
<polygon fill="#58973e" stroke="#58973e" points="1074,-827.963 1069.5,-837.963 1074,-832.963 1074,-837.963 1074,-837.963 1074,-837.963 1074,-832.963 1078.5,-837.963 1074,-827.963 1074,-827.963"/>
<polygon fill="#58973e" stroke="#58973e" points="1074,-747.417 1078.5,-737.417 1074,-742.417 1074,-737.417 1074,-737.417 1074,-737.417 1074,-742.417 1069.5,-737.417 1074,-747.417 1074,-747.417"/>
</g>
<!-- PlanMilestone -->
<g id="node15" class="node"><title>PlanMilestone</title>
<polyline fill="none" stroke="black" points="1185.5,-595 1376.5,-595 "/>
<path fill="none" stroke="black" d="M1376.5,-595C1382.5,-595 1388.5,-601 1388.5,-607"/>
<polyline fill="none" stroke="black" points="1388.5,-607 1388.5,-725 "/>
<path fill="none" stroke="black" d="M1388.5,-725C1388.5,-731 1382.5,-737 1376.5,-737"/>
<polyline fill="none" stroke="black" points="1376.5,-737 1185.5,-737 "/>
<path fill="none" stroke="black" d="M1185.5,-737C1179.5,-737 1173.5,-731 1173.5,-725"/>
<polyline fill="none" stroke="black" points="1173.5,-725 1173.5,-607 "/>
<path fill="none" stroke="black" d="M1173.5,-607C1173.5,-601 1179.5,-595 1185.5,-595"/>
<text text-anchor="middle" x="1281" y="-720.4" font-family="Times Roman,serif" font-size="14.00">PlanMilestone</text>
<polyline fill="none" stroke="black" points="1173.5,-711 1388.5,-711 "/>
<text text-anchor="start" x="1181.5" y="-694.4" font-family="Times Roman,serif" font-size="14.00">name :string</text>
<text text-anchor="start" x="1181.5" y="-676.4" font-family="Times Roman,serif" font-size="14.00">description :string</text>
<text text-anchor="start" x="1181.5" y="-658.4" font-family="Times Roman,serif" font-size="14.00">date :date</text>
<text text-anchor="start" x="1181.5" y="-640.4" font-family="Times Roman,serif" font-size="14.00">means_of_verificaiton :string</text>
<text text-anchor="start" x="1181.5" y="-622.4" font-family="Times Roman,serif" font-size="14.00">created_at :datetime</text>
<text text-anchor="start" x="1181.5" y="-604.4" font-family="Times Roman,serif" font-size="14.00">updated_at :datetime</text>
</g>
<!-- PlanProject&#45;&gt;PlanMilestone -->
<g id="edge12" class="edge"><title>PlanProject&#45;&gt;PlanMilestone</title>
<path fill="none" stroke="#8ac6c5" d="M1117.81,-830.887C1132.23,-812.149 1148.75,-791.753 1165,-774 1174.04,-764.117 1183.84,-754.088 1193.78,-744.324"/>
<ellipse fill="none" stroke="#8ac6c5" cx="1115.02" cy="-834.53" rx="4.00002" ry="4.00002"/>
<polygon fill="#8ac6c5" stroke="#8ac6c5" points="1193.87,-744.241 1204.17,-740.494 1197.45,-740.754 1201.04,-737.268 1201.04,-737.268 1201.04,-737.268 1197.45,-740.754 1197.9,-734.042 1193.87,-744.241 1193.87,-744.241"/>
</g>
<!-- PlanResource -->
<g id="node10" class="node"><title>PlanResource</title>
<polyline fill="none" stroke="black" points="1003.5,-388 1144.5,-388 "/>
<path fill="none" stroke="black" d="M1144.5,-388C1150.5,-388 1156.5,-394 1156.5,-400"/>
<polyline fill="none" stroke="black" points="1156.5,-400 1156.5,-482 "/>
<path fill="none" stroke="black" d="M1156.5,-482C1156.5,-488 1150.5,-494 1144.5,-494"/>
<polyline fill="none" stroke="black" points="1144.5,-494 1003.5,-494 "/>
<path fill="none" stroke="black" d="M1003.5,-494C997.5,-494 991.5,-488 991.5,-482"/>
<polyline fill="none" stroke="black" points="991.5,-482 991.5,-400 "/>
<path fill="none" stroke="black" d="M991.5,-400C991.5,-394 997.5,-388 1003.5,-388"/>
<text text-anchor="middle" x="1074" y="-477.4" font-family="Times Roman,serif" font-size="14.00">PlanResource</text>
<polyline fill="none" stroke="black" points="991.5,-468 1156.5,-468 "/>
<text text-anchor="start" x="999.5" y="-451.4" font-family="Times Roman,serif" font-size="14.00">name :string</text>
<text text-anchor="start" x="999.5" y="-433.4" font-family="Times Roman,serif" font-size="14.00">description :string</text>
<text text-anchor="start" x="999.5" y="-415.4" font-family="Times Roman,serif" font-size="14.00">created_at :datetime</text>
<text text-anchor="start" x="999.5" y="-397.4" font-family="Times Roman,serif" font-size="14.00">updated_at :datetime</text>
</g>
<!-- PlanElement -->
<g id="node11" class="node"><title>PlanElement</title>
<polyline fill="none" stroke="black" points="984.5,-163 1125.5,-163 "/>
<path fill="none" stroke="black" d="M1125.5,-163C1131.5,-163 1137.5,-169 1137.5,-175"/>
<polyline fill="none" stroke="black" points="1137.5,-175 1137.5,-275 "/>
<path fill="none" stroke="black" d="M1137.5,-275C1137.5,-281 1131.5,-287 1125.5,-287"/>
<polyline fill="none" stroke="black" points="1125.5,-287 984.5,-287 "/>
<path fill="none" stroke="black" d="M984.5,-287C978.5,-287 972.5,-281 972.5,-275"/>
<polyline fill="none" stroke="black" points="972.5,-275 972.5,-175 "/>
<path fill="none" stroke="black" d="M972.5,-175C972.5,-169 978.5,-163 984.5,-163"/>
<text text-anchor="middle" x="1055" y="-270.4" font-family="Times Roman,serif" font-size="14.00">PlanElement</text>
<polyline fill="none" stroke="black" points="972.5,-261 1137.5,-261 "/>
<text text-anchor="start" x="980.5" y="-244.4" font-family="Times Roman,serif" font-size="14.00">description :string</text>
<text text-anchor="start" x="980.5" y="-226.4" font-family="Times Roman,serif" font-size="14.00">start_date :date</text>
<text text-anchor="start" x="980.5" y="-208.4" font-family="Times Roman,serif" font-size="14.00">end_date :date</text>
<text text-anchor="start" x="980.5" y="-190.4" font-family="Times Roman,serif" font-size="14.00">created_at :datetime</text>
<text text-anchor="start" x="980.5" y="-172.4" font-family="Times Roman,serif" font-size="14.00">updated_at :datetime</text>
</g>
<!-- PlanResource&#45;&gt;PlanElement -->
<g id="edge18" class="edge"><title>PlanResource&#45;&gt;PlanElement</title>
<path fill="none" stroke="#9c5019" d="M1068.42,-377.617C1066.21,-352.423 1063.65,-323.299 1061.36,-297.289"/>
<polygon fill="#9c5019" stroke="#9c5019" points="1068.45,-377.922 1064.85,-388.278 1068.89,-382.903 1069.33,-387.884 1069.33,-387.884 1069.33,-387.884 1068.89,-382.903 1073.81,-387.489 1068.45,-377.922 1068.45,-377.922"/>
<polygon fill="#9c5019" stroke="#9c5019" points="1061.34,-297.073 1064.95,-286.717 1060.9,-292.092 1060.46,-287.112 1060.46,-287.112 1060.46,-287.112 1060.9,-292.092 1055.98,-287.506 1061.34,-297.073 1061.34,-297.073"/>
</g>
<!-- PlanElementResource -->
<g id="node17" class="node"><title>PlanElementResource</title>
<polyline fill="none" stroke="black" points="1149,-28 1291,-28 "/>
<path fill="none" stroke="black" d="M1291,-28C1297,-28 1303,-34 1303,-40"/>
<polyline fill="none" stroke="black" points="1303,-40 1303,-86 "/>
<path fill="none" stroke="black" d="M1303,-86C1303,-92 1297,-98 1291,-98"/>
<polyline fill="none" stroke="black" points="1291,-98 1149,-98 "/>
<path fill="none" stroke="black" d="M1149,-98C1143,-98 1137,-92 1137,-86"/>
<polyline fill="none" stroke="black" points="1137,-86 1137,-40 "/>
<path fill="none" stroke="black" d="M1137,-40C1137,-34 1143,-28 1149,-28"/>
<text text-anchor="middle" x="1220" y="-81.4" font-family="Times Roman,serif" font-size="14.00">PlanElementResource</text>
<polyline fill="none" stroke="black" points="1137,-72 1303,-72 "/>
<text text-anchor="start" x="1145" y="-55.4" font-family="Times Roman,serif" font-size="14.00">created_at :datetime</text>
<text text-anchor="start" x="1145" y="-37.4" font-family="Times Roman,serif" font-size="14.00">updated_at :datetime</text>
</g>
<!-- PlanResource&#45;&gt;PlanElementResource -->
<g id="edge16" class="edge"><title>PlanResource&#45;&gt;PlanElementResource</title>
<path fill="none" stroke="#8723f9" d="M1104.52,-380.574C1118.04,-352.734 1133.64,-319.047 1146,-288 1170.44,-226.6 1193.36,-153.619 1207.03,-107.795"/>
<ellipse fill="none" stroke="#8723f9" cx="1102.7" cy="-384.297" rx="4.00002" ry="4.00002"/>
<polygon fill="#8723f9" stroke="#8723f9" points="1207.05,-107.749 1214.2,-99.442 1208.47,-102.956 1209.89,-98.162 1209.89,-98.162 1209.89,-98.162 1208.47,-102.956 1205.58,-96.882 1207.05,-107.749 1207.05,-107.749"/>
</g>
<!-- PlanElement&#45;&gt;PlanDeliverable -->
<g id="edge24" class="edge"><title>PlanElement&#45;&gt;PlanDeliverable</title>
<path fill="none" stroke="black" d="M1048.09,-162.83C1046.71,-150.427 1045.27,-137.401 1043.89,-125.004"/>
</g>
<!-- PlanElement&#45;&gt;PlanTask -->
<g id="edge26" class="edge"><title>PlanElement&#45;&gt;PlanTask</title>
<path fill="none" stroke="black" d="M978.247,-162.83C962.935,-150.427 946.853,-137.401 931.548,-125.004"/>
</g>
<!-- PlanElement&#45;&gt;PlanElementResource -->
<g id="edge20" class="edge"><title>PlanElement&#45;&gt;PlanElementResource</title>
<path fill="none" stroke="#a73234" d="M1124.12,-157.132C1142.08,-139.507 1160.89,-121.031 1177.06,-105.16"/>
<ellipse fill="none" stroke="#a73234" cx="1121.18" cy="-160.028" rx="4.00002" ry="4.00002"/>
<polygon fill="#a73234" stroke="#a73234" points="1177.15,-105.07 1187.44,-101.275 1180.72,-101.567 1184.29,-98.0643 1184.29,-98.0643 1184.29,-98.0643 1180.72,-101.567 1181.13,-94.8532 1177.15,-105.07 1177.15,-105.07"/>
</g>
<!-- PlanOrganization&#45;&gt;PlanResource -->
<g id="edge22" class="edge"><title>PlanOrganization&#45;&gt;PlanResource</title>
<path fill="none" stroke="#2d9fb8" d="M1074,-586.692C1074,-559.773 1074,-530.071 1074,-504.545"/>
<ellipse fill="none" stroke="#2d9fb8" cx="1074" cy="-590.809" rx="4" ry="4"/>
<polygon fill="#2d9fb8" stroke="#2d9fb8" points="1074,-504.251 1078.5,-494.251 1074,-499.251 1074,-494.251 1074,-494.251 1074,-494.251 1074,-499.251 1069.5,-494.251 1074,-504.251 1074,-504.251"/>
</g>
<!-- Deliverable -->
<g id="node16" class="node"><title>Deliverable</title>
<polyline fill="none" stroke="black" points="461.5,-775 690.5,-775 "/>
<path fill="none" stroke="black" d="M690.5,-775C696.5,-775 702.5,-781 702.5,-787"/>
<polyline fill="none" stroke="black" points="702.5,-787 702.5,-995 "/>
<path fill="none" stroke="black" d="M702.5,-995C702.5,-1001 696.5,-1007 690.5,-1007"/>
<polyline fill="none" stroke="black" points="690.5,-1007 461.5,-1007 "/>
<path fill="none" stroke="black" d="M461.5,-1007C455.5,-1007 449.5,-1001 449.5,-995"/>
<polyline fill="none" stroke="black" points="449.5,-995 449.5,-787 "/>
<path fill="none" stroke="black" d="M449.5,-787C449.5,-781 455.5,-775 461.5,-775"/>
<text text-anchor="middle" x="576" y="-990.4" font-family="Times Roman,serif" font-size="14.00">Deliverable</text>
<polyline fill="none" stroke="black" points="449.5,-981 702.5,-981 "/>
<text text-anchor="start" x="457.5" y="-964.4" font-family="Times Roman,serif" font-size="14.00">description :string</text>
<text text-anchor="start" x="457.5" y="-946.4" font-family="Times Roman,serif" font-size="14.00">start_date :date</text>
<text text-anchor="start" x="457.5" y="-928.4" font-family="Times Roman,serif" font-size="14.00">end_date :date</text>
<text text-anchor="start" x="457.5" y="-910.4" font-family="Times Roman,serif" font-size="14.00">created_at :datetime</text>
<text text-anchor="start" x="457.5" y="-892.4" font-family="Times Roman,serif" font-size="14.00">updated_at :datetime</text>
<text text-anchor="start" x="457.5" y="-874.4" font-family="Times Roman,serif" font-size="14.00">attachment_file_name :string</text>
<text text-anchor="start" x="457.5" y="-856.4" font-family="Times Roman,serif" font-size="14.00">attachment_content_type :string</text>
<text text-anchor="start" x="457.5" y="-838.4" font-family="Times Roman,serif" font-size="14.00">attachment_file_size :integer</text>
<text text-anchor="start" x="457.5" y="-820.4" font-family="Times Roman,serif" font-size="14.00">attachment_updated_at :datetime</text>
<text text-anchor="start" x="457.5" y="-802.4" font-family="Times Roman,serif" font-size="14.00">display_option :integer</text>
<text text-anchor="start" x="457.5" y="-784.4" font-family="Times Roman,serif" font-size="14.00">status :integer</text>
</g>
<!-- Deliverable&#45;&gt;Role -->
<g id="edge28" class="edge"><title>Deliverable&#45;&gt;Role</title>
<path fill="none" stroke="#fa480b" d="M514.002,-767.553C507.18,-753.968 500.465,-740.598 494.261,-728.246"/>
<ellipse fill="none" stroke="#fa480b" cx="515.884" cy="-771.301" rx="4.00002" ry="4.00002"/>
<polygon fill="#fa480b" stroke="#fa480b" points="494.112,-727.948 493.645,-716.992 491.868,-723.48 489.623,-719.011 489.623,-719.011 489.623,-719.011 491.868,-723.48 485.602,-721.031 494.112,-727.948 494.112,-727.948"/>
</g>
</g>
</svg>
