<?xml version="1.0" encoding="UTF-8" standalone="no"?>
<!DOCTYPE svg PUBLIC "-//W3C//DTD SVG 1.1//EN"
 "http://www.w3.org/Graphics/SVG/1.1/DTD/svg11.dtd">
<!-- Generated by graphviz version 2.26.3 (20100126.1600)
 -->
<!-- Title: models_diagram Pages: 1 -->
<svg width="1159pt" height="324pt"
 viewBox="0.00 0.00 1159.00 324.00" xmlns="http://www.w3.org/2000/svg" xmlns:xlink="http://www.w3.org/1999/xlink">
<g id="graph1" class="graph" transform="scale(1 1) rotate(0) translate(4 320)">
<title>models_diagram</title>
<polygon fill="white" stroke="white" points="-4,5 -4,-320 1156,-320 1156,5 -4,5"/>
<!-- _diagram_info -->
<g id="node1" class="node"><title>_diagram_info</title>
<text text-anchor="start" x="8" y="-299.8" font-family="Times Roman,serif" font-size="13.00">Models diagram</text>
<text text-anchor="start" x="8" y="-282.8" font-family="Times Roman,serif" font-size="13.00">Date: Jun 19 2012 &#45; 16:00</text>
<text text-anchor="start" x="8" y="-265.8" font-family="Times Roman,serif" font-size="13.00">Migration version: 20120508110646</text>
<text text-anchor="start" x="8" y="-248.8" font-family="Times Roman,serif" font-size="13.00">Generated by RailRoady 1.0.7</text>
<text text-anchor="start" x="8" y="-231.8" font-family="Times Roman,serif" font-size="13.00">http://railroady.prestonlee.com</text>
</g>
<!-- Role -->
<g id="node2" class="node"><title>Role</title>
<ellipse fill="none" stroke="black" cx="379" cy="-167" rx="32.0265" ry="18.3848"/>
<text text-anchor="middle" x="379" y="-163.4" font-family="Times Roman,serif" font-size="14.00">Role</text>
</g>
<!-- User -->
<g id="node4" class="node"><title>User</title>
<ellipse fill="none" stroke="black" cx="379" cy="-93" rx="33.9411" ry="18.3848"/>
<text text-anchor="middle" x="379" y="-89.4" font-family="Times Roman,serif" font-size="14.00">User</text>
</g>
<!-- Role&#45;&gt;User -->
<g id="edge2" class="edge"><title>Role&#45;&gt;User</title>
<path fill="none" stroke="#352a84" d="M379,-138.282C379,-132.836 379,-127.138 379,-121.693"/>
<polygon fill="#352a84" stroke="#352a84" points="379,-138.327 374.5,-148.327 379,-143.327 379,-148.327 379,-148.327 379,-148.327 379,-143.327 383.5,-148.327 379,-138.327 379,-138.327"/>
<polygon fill="#352a84" stroke="#352a84" points="379,-121.667 383.5,-111.667 379,-116.667 379,-111.667 379,-111.667 379,-111.667 379,-116.667 374.5,-111.667 379,-121.667 379,-121.667"/>
</g>
<!-- PlanUser -->
<g id="node3" class="node"><title>PlanUser</title>
<ellipse fill="none" stroke="black" cx="638" cy="-269" rx="55.1543" ry="18.3848"/>
<text text-anchor="middle" x="638" y="-265.4" font-family="Times Roman,serif" font-size="14.00">PlanUser</text>
</g>
<!-- PlanWorkpackage -->
<g id="node5" class="node"><title>PlanWorkpackage</title>
<ellipse fill="none" stroke="black" cx="528" cy="-167" rx="98.9949" ry="18.3848"/>
<text text-anchor="middle" x="528" y="-163.4" font-family="Times Roman,serif" font-size="14.00">PlanWorkpackage</text>
</g>
<!-- PlanElement -->
<g id="node11" class="node"><title>PlanElement</title>
<ellipse fill="none" stroke="black" cx="533" cy="-93" rx="73.0388" ry="18.3848"/>
<text text-anchor="middle" x="533" y="-89.4" font-family="Times Roman,serif" font-size="14.00">PlanElement</text>
</g>
<!-- PlanWorkpackage&#45;&gt;PlanElement -->
<g id="edge4" class="edge"><title>PlanWorkpackage&#45;&gt;PlanElement</title>
<path fill="none" stroke="#19a024" d="M529.803,-140.309C530.204,-134.377 530.631,-128.061 531.038,-122.04"/>
<ellipse fill="none" stroke="#19a024" cx="529.531" cy="-144.336" rx="4" ry="4"/>
<polygon fill="#19a024" stroke="#19a024" points="531.064,-121.645 536.228,-111.971 531.402,-116.656 531.739,-111.667 531.739,-111.667 531.739,-111.667 531.402,-116.656 527.249,-111.364 531.064,-121.645 531.064,-121.645"/>
</g>
<!-- Ability -->
<g id="node6" class="node"><title>Ability</title>
<polygon fill="none" stroke="black" points="1015,-287 955,-287 955,-251 1015,-251 1015,-287"/>
<text text-anchor="middle" x="985" y="-265.4" font-family="Times Roman,serif" font-size="14.00">Ability</text>
</g>
<!-- Project -->
<g id="node7" class="node"><title>Project</title>
<ellipse fill="none" stroke="black" cx="314" cy="-269" rx="45.9619" ry="18.3848"/>
<text text-anchor="middle" x="314" y="-265.4" font-family="Times Roman,serif" font-size="14.00">Project</text>
</g>
<!-- Project&#45;&gt;Role -->
<g id="edge6" class="edge"><title>Project&#45;&gt;Role</title>
<path fill="none" stroke="#6d2d64" d="M330.08,-243.766C339.919,-228.327 352.481,-208.615 362.411,-193.031"/>
<ellipse fill="none" stroke="#6d2d64" cx="327.77" cy="-247.391" rx="4.00002" ry="4.00002"/>
<polygon fill="#6d2d64" stroke="#6d2d64" points="362.54,-192.83 371.709,-186.815 365.227,-188.613 367.914,-184.397 367.914,-184.397 367.914,-184.397 365.227,-188.613 364.119,-181.978 362.54,-192.83 362.54,-192.83"/>
</g>
<!-- Abilityplanuser -->
<g id="node8" class="node"><title>Abilityplanuser</title>
<polygon fill="none" stroke="black" points="1151,-287 1033,-287 1033,-251 1151,-251 1151,-287"/>
<text text-anchor="middle" x="1092" y="-265.4" font-family="Times Roman,serif" font-size="14.00">Abilityplanuser</text>
</g>
<!-- PlanProject -->
<g id="node9" class="node"><title>PlanProject</title>
<ellipse fill="none" stroke="black" cx="870" cy="-269" rx="67.1751" ry="18.3848"/>
<text text-anchor="middle" x="870" y="-265.4" font-family="Times Roman,serif" font-size="14.00">PlanProject</text>
</g>
<!-- PlanProject&#45;&gt;PlanWorkpackage -->
<g id="edge8" class="edge"><title>PlanProject&#45;&gt;PlanWorkpackage</title>
<path fill="none" stroke="#e711d1" d="M816.212,-252.958C754.974,-234.694 655.08,-204.901 590.452,-185.626"/>
<ellipse fill="none" stroke="#e711d1" cx="820.398" cy="-254.206" rx="4.00001" ry="4.00001"/>
<polygon fill="#e711d1" stroke="#e711d1" points="590.371,-185.602 582.074,-178.432 585.579,-184.173 580.788,-182.744 580.788,-182.744 580.788,-182.744 585.579,-184.173 579.502,-187.056 590.371,-185.602 590.371,-185.602"/>
</g>
<!-- PlanMilestone -->
<g id="node14" class="node"><title>PlanMilestone</title>
<ellipse fill="none" stroke="black" cx="897" cy="-167" rx="79.9031" ry="18.3848"/>
<text text-anchor="middle" x="897" y="-163.4" font-family="Times Roman,serif" font-size="14.00">PlanMilestone</text>
</g>
<!-- PlanProject&#45;&gt;PlanMilestone -->
<g id="edge10" class="edge"><title>PlanProject&#45;&gt;PlanMilestone</title>
<path fill="none" stroke="#47a36e" d="M877.015,-242.499C880.82,-228.125 885.526,-210.345 889.416,-195.651"/>
<ellipse fill="none" stroke="#47a36e" cx="875.976" cy="-246.425" rx="4.00001" ry="4.00001"/>
<polygon fill="#47a36e" stroke="#47a36e" points="889.52,-195.257 896.429,-186.741 890.8,-190.423 892.079,-185.59 892.079,-185.59 892.079,-185.59 890.8,-190.423 887.729,-184.438 889.52,-195.257 889.52,-195.257"/>
</g>
<!-- PlanResource -->
<g id="node10" class="node"><title>PlanResource</title>
<ellipse fill="none" stroke="black" cx="722" cy="-167" rx="77.0746" ry="18.3848"/>
<text text-anchor="middle" x="722" y="-163.4" font-family="Times Roman,serif" font-size="14.00">PlanResource</text>
</g>
<!-- PlanResource&#45;&gt;PlanElement -->
<g id="edge14" class="edge"><title>PlanResource&#45;&gt;PlanElement</title>
<path fill="none" stroke="#392bd9" d="M672.116,-147.469C644.369,-136.605 609.962,-123.133 582.307,-112.306"/>
<polygon fill="#392bd9" stroke="#392bd9" points="672.143,-147.479 679.814,-155.315 676.799,-149.302 681.455,-151.125 681.455,-151.125 681.455,-151.125 676.799,-149.302 683.095,-146.935 672.143,-147.479 672.143,-147.479"/>
<polygon fill="#392bd9" stroke="#392bd9" points="582.141,-112.241 574.47,-104.404 577.485,-110.418 572.829,-108.595 572.829,-108.595 572.829,-108.595 577.485,-110.418 571.189,-112.785 582.141,-112.241 582.141,-112.241"/>
</g>
<!-- PlanElementResource -->
<g id="node16" class="node"><title>PlanElementResource</title>
<ellipse fill="none" stroke="black" cx="722" cy="-19" rx="116.88" ry="18.3848"/>
<text text-anchor="middle" x="722" y="-15.4" font-family="Times Roman,serif" font-size="14.00">PlanElementResource</text>
</g>
<!-- PlanResource&#45;&gt;PlanElementResource -->
<g id="edge12" class="edge"><title>PlanResource&#45;&gt;PlanElementResource</title>
<path fill="none" stroke="#981d83" d="M722,-140.006C722,-113.917 722,-74.5269 722,-47.8341"/>
<ellipse fill="none" stroke="#981d83" cx="722" cy="-144.256" rx="4" ry="4"/>
<polygon fill="#981d83" stroke="#981d83" points="722,-47.5921 726.5,-37.5921 722,-42.5921 722,-37.5921 722,-37.5921 722,-37.5921 722,-42.5921 717.5,-37.5922 722,-47.5921 722,-47.5921"/>
</g>
<!-- PlanDeliverable -->
<g id="node12" class="node"><title>PlanDeliverable</title>
<ellipse fill="none" stroke="black" cx="373" cy="-19" rx="87.889" ry="18.3848"/>
<text text-anchor="middle" x="373" y="-15.4" font-family="Times Roman,serif" font-size="14.00">PlanDeliverable</text>
</g>
<!-- PlanElement&#45;&gt;PlanDeliverable -->
<g id="edge18" class="edge"><title>PlanElement&#45;&gt;PlanDeliverable</title>
<path fill="none" stroke="black" d="M497.887,-76.7604C471.67,-64.635 435.944,-48.1116 409.418,-35.8434"/>
</g>
<!-- PlanTask -->
<g id="node13" class="node"><title>PlanTask</title>
<ellipse fill="none" stroke="black" cx="533" cy="-19" rx="53.9477" ry="18.3848"/>
<text text-anchor="middle" x="533" y="-15.4" font-family="Times Roman,serif" font-size="14.00">PlanTask</text>
</g>
<!-- PlanElement&#45;&gt;PlanTask -->
<g id="edge20" class="edge"><title>PlanElement&#45;&gt;PlanTask</title>
<path fill="none" stroke="black" d="M533,-74.3267C533,-63.1088 533,-48.8841 533,-37.6674"/>
</g>
<!-- PlanElement&#45;&gt;PlanElementResource -->
<g id="edge16" class="edge"><title>PlanElement&#45;&gt;PlanElementResource</title>
<path fill="none" stroke="#74e732" d="M580.879,-74.2539C607.598,-63.7923 640.952,-50.733 668.525,-39.9375"/>
<ellipse fill="none" stroke="#74e732" cx="576.807" cy="-75.8481" rx="4.00001" ry="4.00001"/>
<polygon fill="#74e732" stroke="#74e732" points="668.704,-39.8673 679.656,-40.4116 673.36,-38.0443 678.016,-36.2213 678.016,-36.2213 678.016,-36.2213 673.36,-38.0443 676.375,-32.0311 668.704,-39.8673 668.704,-39.8673"/>
</g>
<!-- Deliverable -->
<g id="node15" class="node"><title>Deliverable</title>
<ellipse fill="none" stroke="black" cx="445" cy="-269" rx="67.1751" ry="18.3848"/>
<text text-anchor="middle" x="445" y="-265.4" font-family="Times Roman,serif" font-size="14.00">Deliverable</text>
</g>
<!-- Deliverable&#45;&gt;Role -->
<g id="edge22" class="edge"><title>Deliverable&#45;&gt;Role</title>
<path fill="none" stroke="#53ed32" d="M428.672,-243.766C418.682,-228.327 405.927,-208.615 395.844,-193.031"/>
<ellipse fill="none" stroke="#53ed32" cx="431.027" cy="-247.406" rx="4.00002" ry="4.00002"/>
<polygon fill="#53ed32" stroke="#53ed32" points="395.689,-192.793 394.035,-181.952 392.973,-188.595 390.257,-184.397 390.257,-184.397 390.257,-184.397 392.973,-188.595 386.479,-186.841 395.689,-192.793 395.689,-192.793"/>
</g>
</g>
</svg>
