<?xml version="1.0" encoding="UTF-8" standalone="no"?>
<!DOCTYPE svg PUBLIC "-//W3C//DTD SVG 1.1//EN"
 "http://www.w3.org/Graphics/SVG/1.1/DTD/svg11.dtd">
<!-- Generated by graphviz version 2.26.3 (20100126.1600)
 -->
<!-- Title: models_diagram Pages: 1 -->
<svg width="1383pt" height="854pt"
 viewBox="0.00 0.00 1383.00 854.00" xmlns="http://www.w3.org/2000/svg" xmlns:xlink="http://www.w3.org/1999/xlink">
<g id="graph1" class="graph" transform="scale(1 1) rotate(0) translate(4 850)">
<title>models_diagram</title>
<polygon fill="white" stroke="white" points="-4,5 -4,-850 1380,-850 1380,5 -4,5"/>
<!-- _diagram_info -->
<g id="node1" class="node"><title>_diagram_info</title>
<text text-anchor="start" x="8" y="-759.8" font-family="Times Roman,serif" font-size="13.00">Models diagram</text>
<text text-anchor="start" x="8" y="-742.8" font-family="Times Roman,serif" font-size="13.00">Date: Jun 19 2012 &#45; 16:00</text>
<text text-anchor="start" x="8" y="-725.8" font-family="Times Roman,serif" font-size="13.00">Migration version: 20120508110646</text>
<text text-anchor="start" x="8" y="-708.8" font-family="Times Roman,serif" font-size="13.00">Generated by RailRoady 1.0.7</text>
<text text-anchor="start" x="8" y="-691.8" font-family="Times Roman,serif" font-size="13.00">http://railroady.prestonlee.com</text>
</g>
<!-- Role -->
<g id="node2" class="node"><title>Role</title>
<polyline fill="none" stroke="black" points="392.5,-451 533.5,-451 "/>
<path fill="none" stroke="black" d="M533.5,-451C539.5,-451 545.5,-457 545.5,-463"/>
<polyline fill="none" stroke="black" points="545.5,-463 545.5,-545 "/>
<path fill="none" stroke="black" d="M545.5,-545C545.5,-551 539.5,-557 533.5,-557"/>
<polyline fill="none" stroke="black" points="533.5,-557 392.5,-557 "/>
<path fill="none" stroke="black" d="M392.5,-557C386.5,-557 380.5,-551 380.5,-545"/>
<polyline fill="none" stroke="black" points="380.5,-545 380.5,-463 "/>
<path fill="none" stroke="black" d="M380.5,-463C380.5,-457 386.5,-451 392.5,-451"/>
<text text-anchor="middle" x="463" y="-540.4" font-family="Times Roman,serif" font-size="14.00">Role</text>
<polyline fill="none" stroke="black" points="380.5,-531 545.5,-531 "/>
<text text-anchor="start" x="388.5" y="-514.4" font-family="Times Roman,serif" font-size="14.00">name :string</text>
<text text-anchor="start" x="388.5" y="-496.4" font-family="Times Roman,serif" font-size="14.00">resource_type :string</text>
<text text-anchor="start" x="388.5" y="-478.4" font-family="Times Roman,serif" font-size="14.00">created_at :datetime</text>
<text text-anchor="start" x="388.5" y="-460.4" font-family="Times Roman,serif" font-size="14.00">updated_at :datetime</text>
</g>
<!-- User -->
<g id="node4" class="node"><title>User</title>
<polyline fill="none" stroke="black" points="348,-163 578,-163 "/>
<path fill="none" stroke="black" d="M578,-163C584,-163 590,-169 590,-175"/>
<polyline fill="none" stroke="black" points="590,-175 590,-383 "/>
<path fill="none" stroke="black" d="M590,-383C590,-389 584,-395 578,-395"/>
<polyline fill="none" stroke="black" points="578,-395 348,-395 "/>
<path fill="none" stroke="black" d="M348,-395C342,-395 336,-389 336,-383"/>
<polyline fill="none" stroke="black" points="336,-383 336,-175 "/>
<path fill="none" stroke="black" d="M336,-175C336,-169 342,-163 348,-163"/>
<text text-anchor="middle" x="463" y="-378.4" font-family="Times Roman,serif" font-size="14.00">User</text>
<polyline fill="none" stroke="black" points="336,-369 590,-369 "/>
<text text-anchor="start" x="344" y="-352.4" font-family="Times Roman,serif" font-size="14.00">email :string</text>
<text text-anchor="start" x="344" y="-334.4" font-family="Times Roman,serif" font-size="14.00">encrypted_password :string</text>
<text text-anchor="start" x="344" y="-316.4" font-family="Times Roman,serif" font-size="14.00">reset_password_token :string</text>
<text text-anchor="start" x="344" y="-298.4" font-family="Times Roman,serif" font-size="14.00">reset_password_sent_at :datetime</text>
<text text-anchor="start" x="344" y="-280.4" font-family="Times Roman,serif" font-size="14.00">remember_created_at :datetime</text>
<text text-anchor="start" x="344" y="-262.4" font-family="Times Roman,serif" font-size="14.00">current_sign_in_at :datetime</text>
<text text-anchor="start" x="344" y="-244.4" font-family="Times Roman,serif" font-size="14.00">last_sign_in_at :datetime</text>
<text text-anchor="start" x="344" y="-226.4" font-family="Times Roman,serif" font-size="14.00">current_sign_in_ip :string</text>
<text text-anchor="start" x="344" y="-208.4" font-family="Times Roman,serif" font-size="14.00">last_sign_in_ip :string</text>
<text text-anchor="start" x="344" y="-190.4" font-family="Times Roman,serif" font-size="14.00">created_at :datetime</text>
<text text-anchor="start" x="344" y="-172.4" font-family="Times Roman,serif" font-size="14.00">updated_at :datetime</text>
</g>
<!-- Role&#45;&gt;User -->
<g id="edge2" class="edge"><title>Role&#45;&gt;User</title>
<path fill="none" stroke="#a7e2c7" d="M463,-440.797C463,-429.62 463,-417.633 463,-405.424"/>
<polygon fill="#a7e2c7" stroke="#a7e2c7" points="463,-440.963 458.5,-450.963 463,-445.963 463,-450.963 463,-450.963 463,-450.963 463,-445.963 467.5,-450.963 463,-440.963 463,-440.963"/>
<polygon fill="#a7e2c7" stroke="#a7e2c7" points="463,-405.129 467.5,-395.129 463,-400.129 463,-395.129 463,-395.129 463,-395.129 463,-400.129 458.5,-395.129 463,-405.129 463,-405.129"/>
</g>
<!-- PlanUser -->
<g id="node3" class="node"><title>PlanUser</title>
<polyline fill="none" stroke="black" points="732,-613 962,-613 "/>
<path fill="none" stroke="black" d="M962,-613C968,-613 974,-619 974,-625"/>
<polyline fill="none" stroke="black" points="974,-625 974,-833 "/>
<path fill="none" stroke="black" d="M974,-833C974,-839 968,-845 962,-845"/>
<polyline fill="none" stroke="black" points="962,-845 732,-845 "/>
<path fill="none" stroke="black" d="M732,-845C726,-845 720,-839 720,-833"/>
<polyline fill="none" stroke="black" points="720,-833 720,-625 "/>
<path fill="none" stroke="black" d="M720,-625C720,-619 726,-613 732,-613"/>
<text text-anchor="middle" x="847" y="-828.4" font-family="Times Roman,serif" font-size="14.00">PlanUser</text>
<polyline fill="none" stroke="black" points="720,-819 974,-819 "/>
<text text-anchor="start" x="728" y="-802.4" font-family="Times Roman,serif" font-size="14.00">email :string</text>
<text text-anchor="start" x="728" y="-784.4" font-family="Times Roman,serif" font-size="14.00">encrypted_password :string</text>
<text text-anchor="start" x="728" y="-766.4" font-family="Times Roman,serif" font-size="14.00">reset_password_token :string</text>
<text text-anchor="start" x="728" y="-748.4" font-family="Times Roman,serif" font-size="14.00">reset_password_sent_at :datetime</text>
<text text-anchor="start" x="728" y="-730.4" font-family="Times Roman,serif" font-size="14.00">remember_created_at :datetime</text>
<text text-anchor="start" x="728" y="-712.4" font-family="Times Roman,serif" font-size="14.00">current_sign_in_at :datetime</text>
<text text-anchor="start" x="728" y="-694.4" font-family="Times Roman,serif" font-size="14.00">last_sign_in_at :datetime</text>
<text text-anchor="start" x="728" y="-676.4" font-family="Times Roman,serif" font-size="14.00">current_sign_in_ip :string</text>
<text text-anchor="start" x="728" y="-658.4" font-family="Times Roman,serif" font-size="14.00">last_sign_in_ip :string</text>
<text text-anchor="start" x="728" y="-640.4" font-family="Times Roman,serif" font-size="14.00">created_at :datetime</text>
<text text-anchor="start" x="728" y="-622.4" font-family="Times Roman,serif" font-size="14.00">updated_at :datetime</text>
</g>
<!-- PlanWorkpackage -->
<g id="node5" class="node"><title>PlanWorkpackage</title>
<polyline fill="none" stroke="black" points="808.5,-451 949.5,-451 "/>
<path fill="none" stroke="black" d="M949.5,-451C955.5,-451 961.5,-457 961.5,-463"/>
<polyline fill="none" stroke="black" points="961.5,-463 961.5,-545 "/>
<path fill="none" stroke="black" d="M961.5,-545C961.5,-551 955.5,-557 949.5,-557"/>
<polyline fill="none" stroke="black" points="949.5,-557 808.5,-557 "/>
<path fill="none" stroke="black" d="M808.5,-557C802.5,-557 796.5,-551 796.5,-545"/>
<polyline fill="none" stroke="black" points="796.5,-545 796.5,-463 "/>
<path fill="none" stroke="black" d="M796.5,-463C796.5,-457 802.5,-451 808.5,-451"/>
<text text-anchor="middle" x="879" y="-540.4" font-family="Times Roman,serif" font-size="14.00">PlanWorkpackage</text>
<polyline fill="none" stroke="black" points="796.5,-531 961.5,-531 "/>
<text text-anchor="start" x="804.5" y="-514.4" font-family="Times Roman,serif" font-size="14.00">title :string</text>
<text text-anchor="start" x="804.5" y="-496.4" font-family="Times Roman,serif" font-size="14.00">wp_type :string</text>
<text text-anchor="start" x="804.5" y="-478.4" font-family="Times Roman,serif" font-size="14.00">created_at :datetime</text>
<text text-anchor="start" x="804.5" y="-460.4" font-family="Times Roman,serif" font-size="14.00">updated_at :datetime</text>
</g>
<!-- PlanElement -->
<g id="node11" class="node"><title>PlanElement</title>
<polyline fill="none" stroke="black" points="808.5,-217 949.5,-217 "/>
<path fill="none" stroke="black" d="M949.5,-217C955.5,-217 961.5,-223 961.5,-229"/>
<polyline fill="none" stroke="black" points="961.5,-229 961.5,-329 "/>
<path fill="none" stroke="black" d="M961.5,-329C961.5,-335 955.5,-341 949.5,-341"/>
<polyline fill="none" stroke="black" points="949.5,-341 808.5,-341 "/>
<path fill="none" stroke="black" d="M808.5,-341C802.5,-341 796.5,-335 796.5,-329"/>
<polyline fill="none" stroke="black" points="796.5,-329 796.5,-229 "/>
<path fill="none" stroke="black" d="M796.5,-229C796.5,-223 802.5,-217 808.5,-217"/>
<text text-anchor="middle" x="879" y="-324.4" font-family="Times Roman,serif" font-size="14.00">PlanElement</text>
<polyline fill="none" stroke="black" points="796.5,-315 961.5,-315 "/>
<text text-anchor="start" x="804.5" y="-298.4" font-family="Times Roman,serif" font-size="14.00">description :string</text>
<text text-anchor="start" x="804.5" y="-280.4" font-family="Times Roman,serif" font-size="14.00">start_date :date</text>
<text text-anchor="start" x="804.5" y="-262.4" font-family="Times Roman,serif" font-size="14.00">end_date :date</text>
<text text-anchor="start" x="804.5" y="-244.4" font-family="Times Roman,serif" font-size="14.00">created_at :datetime</text>
<text text-anchor="start" x="804.5" y="-226.4" font-family="Times Roman,serif" font-size="14.00">updated_at :datetime</text>
</g>
<!-- PlanWorkpackage&#45;&gt;PlanElement -->
<g id="edge4" class="edge"><title>PlanWorkpackage&#45;&gt;PlanElement</title>
<path fill="none" stroke="#ef3e79" d="M879,-442.692C879,-414.516 879,-380.896 879,-351.475"/>
<ellipse fill="none" stroke="#ef3e79" cx="879" cy="-446.963" rx="4" ry="4"/>
<polygon fill="#ef3e79" stroke="#ef3e79" points="879,-351.259 883.5,-341.259 879,-346.259 879,-341.259 879,-341.259 879,-341.259 879,-346.259 874.5,-341.259 879,-351.259 879,-351.259"/>
</g>
<!-- Ability -->
<g id="node6" class="node"><title>Ability</title>
<polygon fill="none" stroke="black" points="1174,-703 1174,-755 1234,-755 1234,-703 1174,-703"/>
<text text-anchor="middle" x="1204" y="-738.4" font-family="Times Roman,serif" font-size="14.00">Ability</text>
<polyline fill="none" stroke="black" points="1174,-729 1234,-729 "/>
<text text-anchor="middle" x="1204" y="-712.4" font-family="Times Roman,serif" font-size="14.00"> </text>
</g>
<!-- Project -->
<g id="node7" class="node"><title>Project</title>
<polyline fill="none" stroke="black" points="279.5,-676 420.5,-676 "/>
<path fill="none" stroke="black" d="M420.5,-676C426.5,-676 432.5,-682 432.5,-688"/>
<polyline fill="none" stroke="black" points="432.5,-688 432.5,-770 "/>
<path fill="none" stroke="black" d="M432.5,-770C432.5,-776 426.5,-782 420.5,-782"/>
<polyline fill="none" stroke="black" points="420.5,-782 279.5,-782 "/>
<path fill="none" stroke="black" d="M279.5,-782C273.5,-782 267.5,-776 267.5,-770"/>
<polyline fill="none" stroke="black" points="267.5,-770 267.5,-688 "/>
<path fill="none" stroke="black" d="M267.5,-688C267.5,-682 273.5,-676 279.5,-676"/>
<text text-anchor="middle" x="350" y="-765.4" font-family="Times Roman,serif" font-size="14.00">Project</text>
<polyline fill="none" stroke="black" points="267.5,-756 432.5,-756 "/>
<text text-anchor="start" x="275.5" y="-739.4" font-family="Times Roman,serif" font-size="14.00">name :string</text>
<text text-anchor="start" x="275.5" y="-721.4" font-family="Times Roman,serif" font-size="14.00">description :string</text>
<text text-anchor="start" x="275.5" y="-703.4" font-family="Times Roman,serif" font-size="14.00">created_at :datetime</text>
<text text-anchor="start" x="275.5" y="-685.4" font-family="Times Roman,serif" font-size="14.00">updated_at :datetime</text>
</g>
<!-- Project&#45;&gt;Role -->
<g id="edge6" class="edge"><title>Project&#45;&gt;Role</title>
<path fill="none" stroke="#5ab0ac" d="M380.296,-668.676C396.197,-637.015 415.655,-598.272 431.701,-566.32"/>
<ellipse fill="none" stroke="#5ab0ac" cx="378.432" cy="-672.389" rx="4.00002" ry="4.00002"/>
<polygon fill="#5ab0ac" stroke="#5ab0ac" points="431.859,-566.007 440.368,-559.09 434.103,-561.538 436.347,-557.07 436.347,-557.07 436.347,-557.07 434.103,-561.538 432.326,-555.051 431.859,-566.007 431.859,-566.007"/>
</g>
<!-- Abilityplanuser -->
<g id="node8" class="node"><title>Abilityplanuser</title>
<polygon fill="none" stroke="black" points="1251.5,-703 1251.5,-755 1370.5,-755 1370.5,-703 1251.5,-703"/>
<text text-anchor="middle" x="1311" y="-738.4" font-family="Times Roman,serif" font-size="14.00">Abilityplanuser</text>
<polyline fill="none" stroke="black" points="1251.5,-729 1370.5,-729 "/>
<text text-anchor="middle" x="1311" y="-712.4" font-family="Times Roman,serif" font-size="14.00"> </text>
</g>
<!-- PlanProject -->
<g id="node9" class="node"><title>PlanProject</title>
<polyline fill="none" stroke="black" points="1003.5,-676 1144.5,-676 "/>
<path fill="none" stroke="black" d="M1144.5,-676C1150.5,-676 1156.5,-682 1156.5,-688"/>
<polyline fill="none" stroke="black" points="1156.5,-688 1156.5,-770 "/>
<path fill="none" stroke="black" d="M1156.5,-770C1156.5,-776 1150.5,-782 1144.5,-782"/>
<polyline fill="none" stroke="black" points="1144.5,-782 1003.5,-782 "/>
<path fill="none" stroke="black" d="M1003.5,-782C997.5,-782 991.5,-776 991.5,-770"/>
<polyline fill="none" stroke="black" points="991.5,-770 991.5,-688 "/>
<path fill="none" stroke="black" d="M991.5,-688C991.5,-682 997.5,-676 1003.5,-676"/>
<text text-anchor="middle" x="1074" y="-765.4" font-family="Times Roman,serif" font-size="14.00">PlanProject</text>
<polyline fill="none" stroke="black" points="991.5,-756 1156.5,-756 "/>
<text text-anchor="start" x="999.5" y="-739.4" font-family="Times Roman,serif" font-size="14.00">name :string</text>
<text text-anchor="start" x="999.5" y="-721.4" font-family="Times Roman,serif" font-size="14.00">description :string</text>
<text text-anchor="start" x="999.5" y="-703.4" font-family="Times Roman,serif" font-size="14.00">created_at :datetime</text>
<text text-anchor="start" x="999.5" y="-685.4" font-family="Times Roman,serif" font-size="14.00">updated_at :datetime</text>
</g>
<!-- PlanProject&#45;&gt;PlanWorkpackage -->
<g id="edge8" class="edge"><title>PlanProject&#45;&gt;PlanWorkpackage</title>
<path fill="none" stroke="#20adf4" d="M1029.39,-669.147C1014.99,-650.508 998.68,-630.103 983,-612 969.307,-596.19 953.963,-579.665 939.355,-564.431"/>
<ellipse fill="none" stroke="#20adf4" cx="1032.17" cy="-672.757" rx="4.00002" ry="4.00002"/>
<polygon fill="#20adf4" stroke="#20adf4" points="939.194,-564.264 935.493,-553.942 935.724,-560.665 932.253,-557.066 932.253,-557.066 932.253,-557.066 935.724,-560.665 929.014,-560.189 939.194,-564.264 939.194,-564.264"/>
</g>
<!-- PlanMilestone -->
<g id="node14" class="node"><title>PlanMilestone</title>
<polyline fill="none" stroke="black" points="1172.5,-433 1363.5,-433 "/>
<path fill="none" stroke="black" d="M1363.5,-433C1369.5,-433 1375.5,-439 1375.5,-445"/>
<polyline fill="none" stroke="black" points="1375.5,-445 1375.5,-563 "/>
<path fill="none" stroke="black" d="M1375.5,-563C1375.5,-569 1369.5,-575 1363.5,-575"/>
<polyline fill="none" stroke="black" points="1363.5,-575 1172.5,-575 "/>
<path fill="none" stroke="black" d="M1172.5,-575C1166.5,-575 1160.5,-569 1160.5,-563"/>
<polyline fill="none" stroke="black" points="1160.5,-563 1160.5,-445 "/>
<path fill="none" stroke="black" d="M1160.5,-445C1160.5,-439 1166.5,-433 1172.5,-433"/>
<text text-anchor="middle" x="1268" y="-558.4" font-family="Times Roman,serif" font-size="14.00">PlanMilestone</text>
<polyline fill="none" stroke="black" points="1160.5,-549 1375.5,-549 "/>
<text text-anchor="start" x="1168.5" y="-532.4" font-family="Times Roman,serif" font-size="14.00">name :string</text>
<text text-anchor="start" x="1168.5" y="-514.4" font-family="Times Roman,serif" font-size="14.00">description :string</text>
<text text-anchor="start" x="1168.5" y="-496.4" font-family="Times Roman,serif" font-size="14.00">date :date</text>
<text text-anchor="start" x="1168.5" y="-478.4" font-family="Times Roman,serif" font-size="14.00">means_of_verificaiton :string</text>
<text text-anchor="start" x="1168.5" y="-460.4" font-family="Times Roman,serif" font-size="14.00">created_at :datetime</text>
<text text-anchor="start" x="1168.5" y="-442.4" font-family="Times Roman,serif" font-size="14.00">updated_at :datetime</text>
</g>
<!-- PlanProject&#45;&gt;PlanMilestone -->
<g id="edge10" class="edge"><title>PlanProject&#45;&gt;PlanMilestone</title>
<path fill="none" stroke="#b028d7" d="M1118.66,-669.193C1133.07,-650.556 1149.36,-630.141 1165,-612 1173.36,-602.304 1182.33,-592.327 1191.36,-582.54"/>
<ellipse fill="none" stroke="#b028d7" cx="1115.88" cy="-672.802" rx="4.00002" ry="4.00002"/>
<polygon fill="#b028d7" stroke="#b028d7" points="1191.46,-582.428 1201.56,-578.163 1194.86,-578.764 1198.27,-575.101 1198.27,-575.101 1198.27,-575.101 1194.86,-578.764 1194.97,-572.038 1191.46,-582.428 1191.46,-582.428"/>
</g>
<!-- PlanResource -->
<g id="node10" class="node"><title>PlanResource</title>
<polyline fill="none" stroke="black" points="990.5,-451 1131.5,-451 "/>
<path fill="none" stroke="black" d="M1131.5,-451C1137.5,-451 1143.5,-457 1143.5,-463"/>
<polyline fill="none" stroke="black" points="1143.5,-463 1143.5,-545 "/>
<path fill="none" stroke="black" d="M1143.5,-545C1143.5,-551 1137.5,-557 1131.5,-557"/>
<polyline fill="none" stroke="black" points="1131.5,-557 990.5,-557 "/>
<path fill="none" stroke="black" d="M990.5,-557C984.5,-557 978.5,-551 978.5,-545"/>
<polyline fill="none" stroke="black" points="978.5,-545 978.5,-463 "/>
<path fill="none" stroke="black" d="M978.5,-463C978.5,-457 984.5,-451 990.5,-451"/>
<text text-anchor="middle" x="1061" y="-540.4" font-family="Times Roman,serif" font-size="14.00">PlanResource</text>
<polyline fill="none" stroke="black" points="978.5,-531 1143.5,-531 "/>
<text text-anchor="start" x="986.5" y="-514.4" font-family="Times Roman,serif" font-size="14.00">name :string</text>
<text text-anchor="start" x="986.5" y="-496.4" font-family="Times Roman,serif" font-size="14.00">description :string</text>
<text text-anchor="start" x="986.5" y="-478.4" font-family="Times Roman,serif" font-size="14.00">created_at :datetime</text>
<text text-anchor="start" x="986.5" y="-460.4" font-family="Times Roman,serif" font-size="14.00">updated_at :datetime</text>
</g>
<!-- PlanResource&#45;&gt;PlanElement -->
<g id="edge14" class="edge"><title>PlanResource&#45;&gt;PlanElement</title>
<path fill="none" stroke="#2ee1f5" d="M1011.73,-443.093C988.289,-414.11 960.128,-379.295 935.788,-349.205"/>
<polygon fill="#2ee1f5" stroke="#2ee1f5" points="1011.81,-443.188 1014.6,-453.793 1014.95,-447.076 1018.1,-450.963 1018.1,-450.963 1018.1,-450.963 1014.95,-447.076 1021.6,-448.133 1011.81,-443.188 1011.81,-443.188"/>
<polygon fill="#2ee1f5" stroke="#2ee1f5" points="935.65,-349.034 932.859,-338.429 932.505,-345.146 929.361,-341.259 929.361,-341.259 929.361,-341.259 932.505,-345.146 925.862,-344.089 935.65,-349.034 935.65,-349.034"/>
</g>
<!-- PlanElementResource -->
<g id="node16" class="node"><title>PlanElementResource</title>
<polyline fill="none" stroke="black" points="990,-28 1132,-28 "/>
<path fill="none" stroke="black" d="M1132,-28C1138,-28 1144,-34 1144,-40"/>
<polyline fill="none" stroke="black" points="1144,-40 1144,-86 "/>
<path fill="none" stroke="black" d="M1144,-86C1144,-92 1138,-98 1132,-98"/>
<polyline fill="none" stroke="black" points="1132,-98 990,-98 "/>
<path fill="none" stroke="black" d="M990,-98C984,-98 978,-92 978,-86"/>
<polyline fill="none" stroke="black" points="978,-86 978,-40 "/>
<path fill="none" stroke="black" d="M978,-40C978,-34 984,-28 990,-28"/>
<text text-anchor="middle" x="1061" y="-81.4" font-family="Times Roman,serif" font-size="14.00">PlanElementResource</text>
<polyline fill="none" stroke="black" points="978,-72 1144,-72 "/>
<text text-anchor="start" x="986" y="-55.4" font-family="Times Roman,serif" font-size="14.00">created_at :datetime</text>
<text text-anchor="start" x="986" y="-37.4" font-family="Times Roman,serif" font-size="14.00">updated_at :datetime</text>
</g>
<!-- PlanResource&#45;&gt;PlanElementResource -->
<g id="edge12" class="edge"><title>PlanResource&#45;&gt;PlanElementResource</title>
<path fill="none" stroke="#7cdc2d" d="M1061,-442.547C1061,-352.846 1061,-188.09 1061,-108.461"/>
<ellipse fill="none" stroke="#7cdc2d" cx="1061" cy="-446.805" rx="4" ry="4"/>
<polygon fill="#7cdc2d" stroke="#7cdc2d" points="1061,-108.264 1065.5,-98.2644 1061,-103.264 1061,-98.2644 1061,-98.2644 1061,-98.2644 1061,-103.264 1056.5,-98.2645 1061,-108.264 1061,-108.264"/>
</g>
<!-- PlanDeliverable -->
<g id="node12" class="node"><title>PlanDeliverable</title>
<polyline fill="none" stroke="black" points="625.5,-1 766.5,-1 "/>
<path fill="none" stroke="black" d="M766.5,-1C772.5,-1 778.5,-7 778.5,-13"/>
<polyline fill="none" stroke="black" points="778.5,-13 778.5,-113 "/>
<path fill="none" stroke="black" d="M778.5,-113C778.5,-119 772.5,-125 766.5,-125"/>
<polyline fill="none" stroke="black" points="766.5,-125 625.5,-125 "/>
<path fill="none" stroke="black" d="M625.5,-125C619.5,-125 613.5,-119 613.5,-113"/>
<polyline fill="none" stroke="black" points="613.5,-113 613.5,-13 "/>
<path fill="none" stroke="black" d="M613.5,-13C613.5,-7 619.5,-1 625.5,-1"/>
<text text-anchor="middle" x="696" y="-108.4" font-family="Times Roman,serif" font-size="14.00">PlanDeliverable</text>
<polyline fill="none" stroke="black" points="613.5,-99 778.5,-99 "/>
<text text-anchor="start" x="621.5" y="-82.4" font-family="Times Roman,serif" font-size="14.00">description :string</text>
<text text-anchor="start" x="621.5" y="-64.4" font-family="Times Roman,serif" font-size="14.00">start_date :date</text>
<text text-anchor="start" x="621.5" y="-46.4" font-family="Times Roman,serif" font-size="14.00">end_date :date</text>
<text text-anchor="start" x="621.5" y="-28.4" font-family="Times Roman,serif" font-size="14.00">created_at :datetime</text>
<text text-anchor="start" x="621.5" y="-10.4" font-family="Times Roman,serif" font-size="14.00">updated_at :datetime</text>
</g>
<!-- PlanElement&#45;&gt;PlanDeliverable -->
<g id="edge18" class="edge"><title>PlanElement&#45;&gt;PlanDeliverable</title>
<path fill="none" stroke="black" d="M826.314,-216.814C801.923,-188.024 773.015,-153.903 748.631,-125.121"/>
</g>
<!-- PlanTask -->
<g id="node13" class="node"><title>PlanTask</title>
<polyline fill="none" stroke="black" points="807.5,-1 948.5,-1 "/>
<path fill="none" stroke="black" d="M948.5,-1C954.5,-1 960.5,-7 960.5,-13"/>
<polyline fill="none" stroke="black" points="960.5,-13 960.5,-113 "/>
<path fill="none" stroke="black" d="M960.5,-113C960.5,-119 954.5,-125 948.5,-125"/>
<polyline fill="none" stroke="black" points="948.5,-125 807.5,-125 "/>
<path fill="none" stroke="black" d="M807.5,-125C801.5,-125 795.5,-119 795.5,-113"/>
<polyline fill="none" stroke="black" points="795.5,-113 795.5,-13 "/>
<path fill="none" stroke="black" d="M795.5,-13C795.5,-7 801.5,-1 807.5,-1"/>
<text text-anchor="middle" x="878" y="-108.4" font-family="Times Roman,serif" font-size="14.00">PlanTask</text>
<polyline fill="none" stroke="black" points="795.5,-99 960.5,-99 "/>
<text text-anchor="start" x="803.5" y="-82.4" font-family="Times Roman,serif" font-size="14.00">description :string</text>
<text text-anchor="start" x="803.5" y="-64.4" font-family="Times Roman,serif" font-size="14.00">start_date :date</text>
<text text-anchor="start" x="803.5" y="-46.4" font-family="Times Roman,serif" font-size="14.00">end_date :date</text>
<text text-anchor="start" x="803.5" y="-28.4" font-family="Times Roman,serif" font-size="14.00">created_at :datetime</text>
<text text-anchor="start" x="803.5" y="-10.4" font-family="Times Roman,serif" font-size="14.00">updated_at :datetime</text>
</g>
<!-- PlanElement&#45;&gt;PlanTask -->
<g id="edge20" class="edge"><title>PlanElement&#45;&gt;PlanTask</title>
<path fill="none" stroke="black" d="M878.712,-216.814C878.579,-188.024 878.421,-153.903 878.288,-125.121"/>
</g>
<!-- PlanElement&#45;&gt;PlanElementResource -->
<g id="edge16" class="edge"><title>PlanElement&#45;&gt;PlanElementResource</title>
<path fill="none" stroke="#65dbe4" d="M936.79,-210.414C965.655,-176.157 999.687,-135.767 1024.82,-105.936"/>
<ellipse fill="none" stroke="#65dbe4" cx="933.975" cy="-213.755" rx="4.00002" ry="4.00002"/>
<polygon fill="#65dbe4" stroke="#65dbe4" points="1024.89,-105.851 1034.78,-101.103 1028.12,-102.027 1031.34,-98.2032 1031.34,-98.2032 1031.34,-98.2032 1028.12,-102.027 1027.9,-95.3036 1024.89,-105.851 1024.89,-105.851"/>
</g>
<!-- Deliverable -->
<g id="node15" class="node"><title>Deliverable</title>
<polyline fill="none" stroke="black" points="461.5,-631 690.5,-631 "/>
<path fill="none" stroke="black" d="M690.5,-631C696.5,-631 702.5,-637 702.5,-643"/>
<polyline fill="none" stroke="black" points="702.5,-643 702.5,-815 "/>
<path fill="none" stroke="black" d="M702.5,-815C702.5,-821 696.5,-827 690.5,-827"/>
<polyline fill="none" stroke="black" points="690.5,-827 461.5,-827 "/>
<path fill="none" stroke="black" d="M461.5,-827C455.5,-827 449.5,-821 449.5,-815"/>
<polyline fill="none" stroke="black" points="449.5,-815 449.5,-643 "/>
<path fill="none" stroke="black" d="M449.5,-643C449.5,-637 455.5,-631 461.5,-631"/>
<text text-anchor="middle" x="576" y="-810.4" font-family="Times Roman,serif" font-size="14.00">Deliverable</text>
<polyline fill="none" stroke="black" points="449.5,-801 702.5,-801 "/>
<text text-anchor="start" x="457.5" y="-784.4" font-family="Times Roman,serif" font-size="14.00">description :string</text>
<text text-anchor="start" x="457.5" y="-766.4" font-family="Times Roman,serif" font-size="14.00">start_date :date</text>
<text text-anchor="start" x="457.5" y="-748.4" font-family="Times Roman,serif" font-size="14.00">end_date :date</text>
<text text-anchor="start" x="457.5" y="-730.4" font-family="Times Roman,serif" font-size="14.00">created_at :datetime</text>
<text text-anchor="start" x="457.5" y="-712.4" font-family="Times Roman,serif" font-size="14.00">updated_at :datetime</text>
<text text-anchor="start" x="457.5" y="-694.4" font-family="Times Roman,serif" font-size="14.00">attachment_file_name :string</text>
<text text-anchor="start" x="457.5" y="-676.4" font-family="Times Roman,serif" font-size="14.00">attachment_content_type :string</text>
<text text-anchor="start" x="457.5" y="-658.4" font-family="Times Roman,serif" font-size="14.00">attachment_file_size :integer</text>
<text text-anchor="start" x="457.5" y="-640.4" font-family="Times Roman,serif" font-size="14.00">attachment_updated_at :datetime</text>
</g>
<!-- Deliverable&#45;&gt;Role -->
<g id="edge22" class="edge"><title>Deliverable&#45;&gt;Role</title>
<path fill="none" stroke="#6af4e3" d="M523.175,-623.817C513.298,-604.151 503.271,-584.185 494.307,-566.338"/>
<ellipse fill="none" stroke="#6af4e3" cx="524.97" cy="-627.392" rx="4.00002" ry="4.00002"/>
<polygon fill="#6af4e3" stroke="#6af4e3" points="494.212,-566.147 493.745,-555.191 491.968,-561.679 489.723,-557.211 489.723,-557.211 489.723,-557.211 491.968,-561.679 485.702,-559.23 494.212,-566.147 494.212,-566.147"/>
</g>
</g>
</svg>
